<?xml version="1.0" encoding="UTF-8" standalone="no"?>
<!-- Created with Inkscape (http://www.inkscape.org/) -->

<svg
   xmlns:dc="http://purl.org/dc/elements/1.1/"
   xmlns:cc="http://creativecommons.org/ns#"
   xmlns:rdf="http://www.w3.org/1999/02/22-rdf-syntax-ns#"
   xmlns:svg="http://www.w3.org/2000/svg"
   xmlns="http://www.w3.org/2000/svg"
   xmlns:sodipodi="http://sodipodi.sourceforge.net/DTD/sodipodi-0.dtd"
   xmlns:inkscape="http://www.inkscape.org/namespaces/inkscape"
   width="744.09448819"
   height="1052.3622047"
   id="svg3805"
   version="1.1"
   inkscape:version="0.48.5 r10040"
   sodipodi:docname="New document 3">
  <defs
     id="defs3807" />
  <sodipodi:namedview
     id="base"
     pagecolor="#ffffff"
     bordercolor="#ffffff"
     borderopacity="0.0"
     inkscape:pageopacity="0.0"
     inkscape:pageshadow="0"
     inkscape:zoom="0.35"
     inkscape:cx="348.61"
     inkscape:cy="520"
     inkscape:document-units="px"
     inkscape:current-layer="layer1"
     showgrid="false"
     inkscape:window-width="1920"
     inkscape:window-height="1024"
     inkscape:window-x="-2"
     inkscape:window-y="33"
     inkscape:window-maximized="1" />
  <metadata
     id="metadata3810">
    <rdf:RDF>
      <cc:Work
         rdf:about="">
        <dc:format>image/svg+xml</dc:format>
        <dc:type
           rdf:resource="http://purl.org/dc/dcmitype/StillImage" />
        <dc:title></dc:title>
      </cc:Work>
    </rdf:RDF>
  </metadata>
  <g
     inkscape:label="Layer 1"
     inkscape:groupmode="layer"
     id="layer1">
    <flowRoot
       xml:space="preserve"
       id="flowRoot3825"
       style="fill:black;stroke:none;stroke-opacity:1;stroke-width:1px;stroke-linejoin:miter;stroke-linecap:butt;fill-opacity:1;font-family:Sans;font-style:normal;font-weight:normal;font-size:36px;line-height:125%;letter-spacing:0px;word-spacing:0px"><flowRegion
         id="flowRegion3827"><rect
           id="rect3829"
           width="168.57143"
           height="625.71429"
           x="-242.85715"
           y="-259.06638" /></flowRegion><flowPara
         id="flowPara3831"></flowPara></flowRoot>    <path
       style="fill:#000000;fill-opacity:1;stroke:#000000;stroke-width:10;stroke-linecap:round;stroke-linejoin:round;stroke-miterlimit:4;stroke-opacity:1;stroke-dasharray:5, 5;stroke-dashoffset:0"
       id="path3913"
       d="m -886.59696,48.10601 c 2.87997,-7.305684 5.80351,-14.584384 9.04336,-21.740826 5.50249,-13.262188 13.53009,-24.7379775 23.21284,-35.2321303 15.39021,-15.7798407 34.5412,-26.4372627 54.2455,-35.8075527 30.97821,-13.453405 64.06051,-20.695802 97.10863,-26.893438 48.76135,-8.21855 98.10181,-12.116212 147.45343,-14.409003 56.22967,-2.215799 112.44407,0.286941 168.43815,5.36514 48.70094,4.884696 96.97706,13.134993 144.9397,22.762453 31.9629,6.192845 63.31177,15.003751 93.64054,26.811676 18.9626,7.201587 36.06609,16.634253 51.341215,29.9587623 11.152441,10.4607469 18.560105,23.5394867 24.368651,37.4951377 4.649892,11.068084 6.962696,22.746479 7.48425,34.686478 0.06738,11.650784 -2.952397,22.766874 -7.675272,33.312903 -4.674138,11.05357 -13.116147,18.3986 -22.928402,24.7813 -17.357652,10.52976 -36.762632,16.6963 -56.044782,22.61015 -31.86097,9.67655 -64.366,17.0587 -96.7563,24.71518 -34.77295,8.0427 -69.32604,16.9674 -103.91258,25.76281 -36.82314,10.01823 -73.70246,19.64781 -111.02534,27.62795 -32.61917,6.73032 -65.4637,12.286 -98.52033,16.34264 -28.83374,3.72759 -57.88559,4.42626 -86.90135,3.14959 -29.18344,-1.96485 -58.01569,-6.87369 -86.5965,-12.91314 -27.96769,-6.14401 -55.37618,-14.50068 -82.36446,-24.01017 -20.67043,-6.98353 -40.70736,-15.52682 -60.4209,-24.82799 -13.42154,-6.53643 -25.76799,-14.9286 -37.28837,-24.36972 -8.29547,-6.68052 -14.65932,-15.04164 -19.79331,-24.2883 -4.36762,-8.0539 -6.52754,-16.90918 -7.92578,-25.88754 -1.25311,-7.27979 -0.7159,-14.619054 0.14385,-21.898552 0.90475,-6.527529 3.04993,-12.813336 5.29722,-18.984188 2.06586,-5.699517 5.64635,-10.305688 9.82728,-14.579197 3.37283,-3.186483 7.10009,-5.948936 10.8137,-8.716217 0,0 8.53427,0.797266 8.53427,0.797266 l 0,0 c -3.69547,2.741144 -7.40851,5.466848 -10.80243,8.584676 -4.13633,4.177075 -7.7633,8.594942 -9.80667,14.214293 -2.24656,6.100854 -4.37065,12.328196 -5.29254,18.784387 -0.85499,7.202251 -1.39695,14.462012 -0.14429,21.664592 1.39436,8.88203 3.55677,17.63416 7.9157,25.58401 5.1396,9.14399 11.51767,17.37776 19.77079,23.96611 11.52382,9.36728 23.86192,17.69244 37.2673,24.16157 19.70798,9.27948 39.75803,17.75566 60.41057,24.74086 26.98711,9.46726 54.38801,17.79784 82.34998,23.89926 28.57473,5.9986 57.40157,10.87905 86.57615,12.77335 23.37986,0.97252 46.71899,-0.0239 69.94822,-3.08288 33.05462,-4.01447 65.89304,-9.5617 98.50967,-16.26726 37.32518,-7.95357 74.20866,-17.54814 111.02091,-27.59513 34.58991,-8.78913 69.1387,-17.73834 103.9145,-25.77711 32.38382,-7.65327 64.88614,-15.01644 96.74909,-24.66026 19.25597,-5.8695 38.63446,-11.96932 56.01799,-22.37542 9.761803,-6.22923 18.23571,-13.3468 22.893397,-24.28971 4.719592,-10.40733 7.730582,-21.389364 7.667673,-32.91253 C -74.413945,59.297911 -76.738664,47.723887 -81.369665,36.755268 -87.169636,22.917683 -94.578248,9.9690744 -105.71361,-0.34578066 -120.88506,-13.427062 -138.26696,-22.951521 -157.02453,-30.010983 c -30.33698,-11.729798 -61.67573,-20.492921 -93.62158,-26.665176 -47.96016,-9.594178 -96.22988,-17.828267 -144.92657,-22.671078 -50.35299,-4.528384 -100.9187,-7.3111 -151.48853,-5.327834 -49.3443,2.255128 -98.67443,6.135396 -147.4362,14.291424 -33.02871,6.146816 -66.08563,13.340482 -97.08095,26.674452 -19.67296,9.274405 -38.8016,19.825722 -54.21494,35.4827494 -9.69064,10.3873982 -17.71788,21.7609206 -23.19665,34.9565486 -3.24991,7.149841 -6.18773,14.420772 -9.04307,21.734281 0,0 -8.56394,-0.358374 -8.56394,-0.358374 z"
       inkscape:connector-curvature="0" />
    <path
       style="fill:#000080;fill-opacity:1;stroke:#000000;stroke-width:10;stroke-linecap:round;stroke-linejoin:round;stroke-miterlimit:4;stroke-opacity:1;stroke-dasharray:5, 5;stroke-dashoffset:0"
       id="path3915"
       d="m -1235.4422,633.90577 c 1.1698,-9.49513 2.5066,-18.95575 4.2112,-28.37218 2.4303,-12.64199 5.7236,-25.10431 10.0617,-37.22274 3.8296,-10.33938 9.2364,-19.99195 15.8147,-28.81493 4.9907,-6.42628 11.0015,-11.77791 18.3275,-15.3254 10.9573,-3.76508 22.12,-1.07807 32.246,3.4959 12.6365,6.19399 20.1326,18.20879 27.3854,29.72993 9.7853,16.60058 15.642,34.98442 20.9326,53.3931 4.638,16.03906 7.8719,32.35854 7.9736,49.07298 -0.4823,11.89741 -4.4832,22.56756 -14.6072,29.50997 -2.4585,1.68594 -5.1873,2.93922 -7.781,4.40883 -28.7877,11.81365 -60.6059,9.93351 -91.0642,9.34021 -20.2184,-1.39436 -40.6041,-2.73583 -60.4527,-7.10555 -10.754,-2.36749 -12.9249,-3.4266 -23.0971,-6.92437 -16.2449,-6.60315 -30.3294,-17.77866 -36.037,-34.95367 -1.1338,-3.4118 -1.5619,-7.01883 -2.3429,-10.52824 -0.1032,-3.70561 -0.5741,-7.41924 -0.3096,-11.11685 1.8227,-25.4791 18.6997,-46.9917 33.1786,-66.73659 17.4147,-22.0032 35.7015,-43.34707 56.1095,-62.64783 11.0321,-10.43351 18.8493,-16.85349 30.332,-26.64631 20.4081,-15.90629 40.0913,-33.40115 62.763,-46.14166 3.323,-1.8674 6.8047,-3.43708 10.2071,-5.15562 17.4145,-6.71188 37.8392,-8.2722 55.1398,-0.23176 2.77,1.28735 5.3216,3.00013 7.9824,4.50019 12.1237,8.76399 22.7649,20.55162 28.1499,34.74051 0.9742,2.56687 1.5031,5.28129 2.2547,7.92194 3.2971,22.29305 -9.258,37.67138 -23.4424,53.18025 -21.7091,21.1355 -49.496,32.86695 -77.7731,42.32766 -30.9424,9.03528 -63.2412,10.62093 -95.2366,7.67502 -5.9376,-0.54669 -11.7778,-1.87142 -17.6667,-2.80714 -21.7916,-4.50474 -42.6491,-12.52198 -61.4274,-24.51948 -11.0774,-7.07738 -13.6824,-9.82104 -23.6205,-18.19389 -16.5637,-15.62461 -30.6007,-34.10146 -38.2552,-55.75646 -1.4117,-3.99388 -2.3041,-8.15276 -3.4561,-12.22914 -5.3575,-26.04178 1.1819,-45.65905 11.1172,-69.30205 7.3277,-15.76733 15.4138,-31.36327 27.5759,-43.93935 13.7952,-11.78108 29.0937,-11.89958 46.3838,-7.80239 18.3156,5.9437 31.971,19.15973 44.2107,33.43529 10.2724,12.47945 17.2336,26.82347 20.4269,42.61324 1.4294,9.75844 -0.3452,19.4988 -5.2783,28.01774 -3.1599,4.4005 -12.6588,6.023 -15.3089,0.38054 -1.5291,-3.25577 -1.2179,-5.55012 -1.4206,-9.20657 1.1695,-20.83502 11.2,-38.6777 22.6204,-55.57555 18.199,-24.00228 41.6975,-38.05936 68.5014,-50.61558 32.5707,-14.01816 67.5818,-13.2207 102.1871,-9.71548 32.7989,4.59585 64.5646,14.23064 95.05344,26.96481 20.49568,8.73614 39.01642,21.02399 55.8403,35.51023 6.25855,6.65499 16.53092,13.945 17.00221,24.10146 0.0588,1.26711 -0.30991,2.51795 -0.46487,3.77692 -4.27908,10.13767 -16.44796,9.6374 -25.69243,6.52038 -9.99784,-5.07991 -11.99551,-13.39348 -13.17841,-23.80276 -0.56976,-17.5351 5.74077,-30.41242 15.75997,-44.28499 12.24033,-14.93374 28.27286,-25.8657 44.12142,-36.58125 11.67961,-7.90231 23.89721,-14.94025 36.48386,-21.28164 8.87899,-4.23715 17.90546,-8.17058 27.09047,-11.69622 9.3193,-3.47998 19.13438,-5.13839 28.93069,-6.59514 10.34394,-1.45264 20.74432,-2.45332 31.1509,-3.32712 10.03513,-0.81451 20.09335,-1.2806 30.15197,-1.68239 10.17379,-0.38431 20.35189,-0.63507 30.53052,-0.84657 10.15019,-0.20045 20.30172,-0.31971 30.45324,-0.42684 9.18878,-0.0922 18.3778,-0.1572 27.56685,-0.21475 9.23871,-0.0572 18.47755,-0.0854 27.7164,-0.10888 12.20488,-0.0284 24.40979,-0.0424 36.6147,-0.0547 12.7485,0.0614 25.48848,-0.54108 38.22623,-0.99023 5.55344,-0.19643 11.10766,-0.3692 16.66194,-0.53991 0,0 8.46996,1.31496 8.46996,1.31496 l 0,0 c -5.55408,0.16923 -11.1081,0.34052 -16.66133,0.53602 -12.73947,0.44743 -25.4809,1.06488 -38.23076,1.01918 -12.20484,0.0121 -24.40969,0.0258 -36.61451,0.0534 -9.23867,0.0228 -18.47735,0.0498 -27.7159,0.10574 -9.18886,0.0566 -18.37768,0.12082 -27.56628,0.21115 -10.15105,0.10537 -20.30212,0.22234 -30.4519,0.41829 -10.17775,0.20705 -20.35493,0.45412 -30.52803,0.83053 -10.05639,0.39304 -20.11248,0.84817 -30.14636,1.64551 -10.40342,0.85778 -20.79994,1.84956 -31.14308,3.27377 -9.77838,1.42013 -19.58182,3.01254 -28.90609,6.40929 -9.18542,3.48649 -18.19729,7.41529 -27.08053,11.61058 -12.58625,6.29473 -24.80087,13.29529 -36.4724,21.17191 -15.80062,10.65671 -31.81169,21.48727 -44.09747,36.28352 -9.98236,13.65511 -16.30047,26.30273 -15.74361,43.64895 1.1733,10.15012 3.13687,18.2022 13.11018,22.81684 0.42561,0.12259 11.01156,2.73612 -1.4774,1.37138 -1.12265,-0.12268 2.26469,-0.21406 3.34323,-0.54894 3.30603,-1.0265 5.46876,-3.21919 6.75323,-6.36823 0.15531,-1.16461 0.52277,-2.32029 0.46594,-3.49384 -0.48046,-9.92142 -10.93433,-17.0325 -16.97217,-23.53772 -16.83305,-14.38972 -35.346,-26.58238 -55.81287,-35.24186 -30.48925,-12.64214 -62.23825,-22.23017 -95.02005,-26.71417 -8.5016,-0.83345 -16.9873,-2.30537 -25.5293,-2.23506 -20.4978,0.1687 -40.708,3.70618 -59.6627,11.66428 -26.7343,12.39974 -50.2442,26.33639 -68.4615,50.15578 -11.3735,16.70105 -21.3946,34.37605 -22.6053,55.01681 0.1819,3.19556 -0.1311,5.79121 1.3987,8.64065 0.3335,0.62109 2.1508,1.25002 1.4914,1.49935 -2.1436,0.81057 -4.5632,0.51049 -6.8548,0.52876 -0.6043,0.005 1.2351,-0.16517 1.7459,-0.48803 0.7138,-0.45114 1.2118,-1.17625 1.8178,-1.76438 4.9906,-8.24879 6.6519,-17.86014 5.2678,-27.38793 -3.2033,-15.6505 -10.1816,-29.8386 -20.407,-42.17662 -12.2217,-14.14371 -25.8564,-27.21938 -44.1548,-32.89352 -2.5888,-0.56917 -5.2621,-0.83905 -7.7664,-1.70751 -0.4898,-0.16986 1.9988,-0.51207 1.4819,-0.47184 -8.7038,0.67743 -16.4656,3.69526 -23.0596,9.49359 -12.2234,12.39992 -20.2262,27.95773 -27.5571,43.61853 -9.8945,23.46093 -16.4705,42.85611 -11.1137,68.72367 1.1508,4.04016 2.0437,8.16289 3.4525,12.12049 7.664,21.52967 21.6982,39.86565 38.2296,55.35518 9.9315,8.30725 12.5397,11.03587 23.606,18.04392 18.7827,11.89464 39.6323,19.79602 61.3888,24.20732 9.1382,1.4148 18.2148,3.63314 27.4558,3.96912 23.1178,0.84049 46.2225,-2.52421 68.4571,-8.69628 28.223,-9.34077 55.9768,-20.94395 77.7299,-41.89582 14.0297,-15.19405 26.6941,-30.32435 23.4221,-52.30437 -0.7498,-2.59257 -1.28,-5.25901 -2.2494,-7.77769 -5.402,-14.03454 -16.0024,-25.65696 -28.1101,-34.21436 -18.1819,-9.96112 -26.5264,-11.54428 -46.0801,-4.23241 -3.3998,1.69426 -6.8801,3.23581 -10.1994,5.08279 -22.7006,12.63142 -42.3396,30.16246 -62.7504,46.00921 -11.4161,9.71879 -19.3568,16.23604 -30.3268,26.58378 -20.4084,19.25068 -38.6821,40.55577 -56.0999,62.51245 -14.3754,19.53629 -31.327,40.91331 -33.1614,66.16995 -0.2645,3.64245 0.2051,7.30121 0.3076,10.95181 0.779,3.44961 1.2063,6.99797 2.337,10.34883 5.7321,16.98773 19.8831,27.83201 35.9789,34.26012 10.2138,3.45406 12.2883,4.4647 23.0804,6.79844 19.8522,4.29295 40.2222,5.63411 60.4338,6.97717 24.8515,1.44667 50.6759,0.19205 74.0713,-8.93297 2.5886,-1.41727 5.3041,-2.62412 7.7658,-4.2518 10.0939,-6.67411 14.11,-17.01314 14.574,-28.75275 -0.1014,-16.63653 -3.3533,-32.87594 -7.9702,-48.8381 -5.2805,-18.33255 -11.1275,-36.64198 -20.9223,-53.15064 -7.2288,-11.4101 -14.6981,-23.25831 -27.3422,-29.22675 -3.4605,-1.51277 -5.2238,-2.43462 -8.8357,-3.44045 -1.355,-0.37734 -4.6572,0.41899 -4.1262,-0.88352 0.5796,-1.42178 3.0632,-0.23063 4.598,-0.27383 2.3112,-0.065 -9.1534,0.33038 -6.851,1.08522 -7.3434,3.31845 -13.3079,8.59105 -18.2904,14.90804 -6.5929,8.71677 -11.9703,18.30442 -15.802,28.55871 -4.3477,12.06662 -7.6257,24.48637 -10.0579,37.08097 -1.7113,9.42655 -3.0579,18.89717 -4.2119,28.40589 0,0 -8.5694,-0.18742 -8.5694,-0.18742 z"
       inkscape:connector-curvature="0" />
    <path
       style="fill:#ff0000;fill-opacity:1;stroke:#000000;stroke-width:10;stroke-linecap:round;stroke-linejoin:round;stroke-miterlimit:4;stroke-opacity:1;stroke-dasharray:5, 5;stroke-dashoffset:0"
       id="path3917"
       d="m -711.59818,280.08482 c 7.83858,-1.58131 15.85689,-2.00769 23.82107,-2.49136 16.19494,-0.82407 32.41002,-1.15462 48.62058,-1.50531 14.41146,-0.30029 28.82398,-0.54657 43.23694,-0.76161 10.69205,-0.15584 21.38451,-0.28003 32.07717,-0.38481 13.02353,-0.0959 26.05039,-0.31541 39.06941,0.15012 9.17046,0.39975 18.34172,0.77341 27.51587,1.07728 5.67592,0.17381 2.88241,0.0371 8.38096,0.40105 0,0 -8.47416,1.28767 -8.47416,1.28767 l 0,0 c -5.49511,-0.32739 -2.70285,-0.19957 -8.37713,-0.37612 -9.17405,-0.30879 -18.34497,-0.69187 -27.51603,-1.07832 -1.66686,-0.0558 -3.35384,0.0967 -5.00059,-0.16748 -1.09254,-0.17524 4.42361,-0.0602 3.31792,-0.10242 -6.80511,-0.25984 -13.64137,0.30468 -20.44905,0.14086 -10.69243,0.10293 -21.38466,0.22624 -32.07649,0.38047 -14.41267,0.21277 -28.82487,0.45822 -43.23605,0.75596 -16.20869,0.34708 -32.42144,0.67645 -48.61563,1.4732 -7.95485,0.46339 -15.95613,0.88076 -23.8016,2.35625 0,0 -8.49319,-1.15543 -8.49319,-1.15543 z"
       inkscape:connector-curvature="0" />
    <path
       style="fill:#ff0000;fill-opacity:1;stroke:#000000;stroke-width:10;stroke-linecap:round;stroke-linejoin:round;stroke-miterlimit:4;stroke-opacity:1;stroke-dasharray:5, 5;stroke-dashoffset:0"
       id="path3919"
       d="m -688.42631,294.54889 c 13.929,0.31611 27.85903,0.72464 41.79141,0.98545 27.43889,0.44526 54.88065,0.68041 82.32199,0.91443 0,0 -8.46704,1.33364 -8.46704,1.33364 l 0,0 c -27.44182,-0.23506 -54.88409,-0.47093 -82.32337,-0.92319 -13.93133,-0.26542 -27.85951,-0.69959 -41.78889,-0.96946 0,0 8.4659,-1.34087 8.4659,-1.34087 z"
       inkscape:connector-curvature="0" />
    <path
       style="fill:#ff0000;fill-opacity:1;stroke:#000000;stroke-width:10;stroke-linecap:round;stroke-linejoin:round;stroke-miterlimit:4;stroke-opacity:1;stroke-dasharray:5, 5;stroke-dashoffset:0"
       id="path3921"
       d="m -646.73846,162.01558 c 1.50398,5.34456 2.94412,10.70894 4.5408,16.02714 1.40574,4.94793 2.97553,9.84574 4.42489,14.78072 0,0 -8.56792,0.24524 -8.56792,0.24524 l 0,0 c -1.45375,-4.93224 -3.01578,-9.8312 -4.42478,-14.77675 -1.58485,-5.31285 -3.02366,-10.66839 -4.53998,-16.00061 0,0 8.56699,-0.27574 8.56699,-0.27574 z"
       inkscape:connector-curvature="0" />
    <path
       style="fill:#ff0000;fill-opacity:1;stroke:#000000;stroke-width:10;stroke-linecap:round;stroke-linejoin:round;stroke-miterlimit:4;stroke-opacity:1;stroke-dasharray:5, 5;stroke-dashoffset:0"
       id="path3923"
       d="m -668.69738,357.40603 c 0.74661,0 2.98603,0.0255 2.23985,0 -1.87335,-0.0639 -3.76368,0.12886 -5.62214,-0.11539 -1.08773,-0.14296 2.19044,-0.12782 3.28567,-0.19168 1.25235,-0.073 2.50443,-0.15092 3.75706,-0.21898 7.60104,-0.41299 1.09497,-0.002 9.34663,-0.55781 23.14166,-1.83992 46.37407,-1.28708 69.56246,-1.0544 32.4028,0.67679 64.80236,1.49233 97.20553,2.15595 26.78105,0.44023 53.56151,1.17685 80.34818,1.06225 25.50045,-0.10658 51.00041,-0.30349 76.5006,-0.45639 27.23494,-0.17599 54.45574,0.64361 81.67478,1.42536 27.52757,0.44011 55.01106,2.06282 82.50827,3.31882 37.63138,2.09683 75.303374,3.20611 112.978444,4.12774 56.8784294,1.26544 113.769136,1.83505 170.658196,2.36579 61.77252,0.43133 123.53116,1.96969 185.29232,3.16351 52.18756,1.01049 104.37927,1.77807 156.57225,2.44202 43.13536,0.54113 86.27244,0.92458 129.40984,1.25634 35.58099,0.26385 71.16248,0.45417 106.74397,0.63388 25.10903,0.12598 50.21814,0.23392 75.32734,0.31934 30.07817,0.0946 60.15649,0.12701 90.23477,0.16029 39.12245,0.0403 78.24492,0.0618 117.36738,0.081 33.45418,0.0159 66.90838,0.0293 100.36248,0.0409 16.7702,0.006 33.5404,0.0105 50.3106,0.0152 0,0 -8.466,1.34063 -8.466,1.34063 l 0,0 c -16.7702,-0.005 -33.5403,-0.01 -50.3105,-0.0153 -33.4542,-0.0117 -66.9084,-0.025 -100.36254,-0.041 -39.1225,-0.0194 -78.24499,-0.0409 -117.36747,-0.0815 -30.07839,-0.0336 -60.15681,-0.0663 -90.23508,-0.16225 -25.10927,-0.0862 -50.21845,-0.19449 -75.32755,-0.32072 -35.58162,-0.18021 -71.16322,-0.37108 -106.74433,-0.63613 -43.13763,-0.33302 -86.27493,-0.71795 -129.41051,-1.2606 -52.19327,-0.66589 -104.38528,-1.43563 -156.57313,-2.44761 -61.76065,-1.19503 -123.51887,-2.72862 -185.29099,-3.15504 -56.889771,-0.53293 -113.7812221,-1.10479 -170.660211,-2.37867 -37.676149,-0.92817 -75.348399,-2.05504 -112.981219,-4.1457 -27.49603,-1.26119 -54.97952,-2.86085 -82.50604,-3.30439 -21.57659,-0.61997 -43.15181,-1.27204 -64.73837,-1.4061 -25.5004,0.15208 -51.00056,0.34801 -76.50118,0.46009 -32.43263,0.0308 -64.85843,-0.30249 -97.28294,-1.07826 -32.40257,-0.66592 -64.80146,-1.48931 -97.20411,-2.14697 -17.54733,-0.17149 -35.11346,-0.53322 -52.62032,1.00453 -9.96683,0.70224 -19.95086,1.28174 -29.94789,1.14212 0,0 8.4659,-1.34087 8.4659,-1.34087 z"
       inkscape:connector-curvature="0" />
    <path
       style="fill:#ff0000;fill-opacity:1;stroke:#000000;stroke-width:10;stroke-linecap:round;stroke-linejoin:round;stroke-miterlimit:4;stroke-opacity:1;stroke-dasharray:5, 5;stroke-dashoffset:0"
       id="path3925"
       d="m -669.72995,316.34546 c 1.20749,5.3724 1.80627,10.83851 2.09236,16.32859 0.22538,5.9285 0.26609,11.86212 0.31433,17.79413 0.0381,5.17772 0.0603,10.35553 0.0808,15.53334 0,0 -8.57143,0.003 -8.57143,0.003 l 0,0 c -0.0205,-5.17661 -0.0427,-10.35323 -0.0808,-15.52976 -0.0482,-5.9194 -0.0885,-11.84043 -0.31422,-17.75631 -0.28581,-5.44277 -0.88647,-10.86134 -2.09043,-16.18596 0,0 8.56938,-0.18742 8.56938,-0.18742 z"
       inkscape:connector-curvature="0" />
    <path
       style="fill:#ff0000;fill-opacity:1;stroke:#000000;stroke-width:10;stroke-linecap:round;stroke-linejoin:round;stroke-miterlimit:4;stroke-opacity:1;stroke-dasharray:5, 5;stroke-dashoffset:0"
       id="path3927"
       d="m -609.5949,296.59615 c 1.59871,6.40933 2.65422,12.93804 3.63675,19.46511 0.92157,6.69617 1.80466,13.4103 2.09877,20.16673 0.12935,3.17819 0.0545,6.34769 -0.10372,9.52175 0,0 -8.57132,-0.043 -8.57132,-0.043 l 0,0 c 0.15903,-3.14721 0.23239,-6.28985 0.1037,-9.44126 -0.29612,-6.7261 -1.17881,-13.41002 -2.0979,-20.07599 -0.98038,-6.49407 -2.03063,-12.99093 -3.63468,-19.36516 0,0 8.5684,-0.22819 8.5684,-0.22819 z"
       inkscape:connector-curvature="0" />
    <path
       style="fill:#ff0000;fill-opacity:1;stroke:#000000;stroke-width:10;stroke-linecap:round;stroke-linejoin:round;stroke-miterlimit:4;stroke-opacity:1;stroke-dasharray:5, 5;stroke-dashoffset:0"
       id="path3929"
       d="m -501.02378,287.87839 c 2.40123,10.24511 2.65057,20.80967 2.61896,31.2804 -0.0467,8.76551 -0.74384,17.50833 -1.38137,26.24516 0,0 -8.5712,-0.0625 -8.5712,-0.0625 l 0,0 c 0.6366,-8.7169 1.33413,-17.43974 1.38114,-26.18529 0.0316,-10.38519 -0.20325,-20.87204 -2.61532,-31.02803 0,0 8.56779,-0.24978 8.56779,-0.24978 z"
       inkscape:connector-curvature="0" />
    <path
       style="fill:#ff0000;fill-opacity:1;stroke:#000000;stroke-width:10;stroke-linecap:round;stroke-linejoin:round;stroke-miterlimit:4;stroke-opacity:1;stroke-dasharray:5, 5;stroke-dashoffset:0"
       id="path3931"
       d="m -558.70718,439.47456 c -3.29138,19.76598 -6.30012,39.57653 -9.02155,59.4325 -5.67678,44.27649 -8.51617,88.85405 -10.43525,133.43095 -1.82188,53.40163 -2.52972,106.83311 -3.30255,160.25783 -0.26995,19.5057 -0.54236,39.01135 -0.8272,58.51683 0,0 -8.57142,-0.0125 -8.57142,-0.0125 l 0,0 c 0.28484,-19.50545 0.55726,-39.01106 0.8272,-58.51672 0.77292,-53.43287 1.48099,-106.8725 3.30262,-160.2823 1.91914,-44.60348 4.76001,-89.20746 10.43596,-133.51079 2.71807,-19.84592 5.71488,-39.64802 9.02119,-59.40122 0,0 8.571,0.0854 8.571,0.0854 z"
       inkscape:connector-curvature="0" />
    <path
       style="fill:#ff0000;fill-opacity:1;stroke:#000000;stroke-width:10;stroke-linecap:round;stroke-linejoin:round;stroke-miterlimit:4;stroke-opacity:1;stroke-dasharray:5, 5;stroke-dashoffset:0"
       id="path3933"
       d="m -574.1161,447.49669 c -4.97804,1.42293 -9.76359,3.47507 -14.46115,5.63393 -8.10723,4.11737 -15.96191,8.69243 -23.84055,13.22448 -6.83872,3.99682 -13.57794,8.15996 -20.28728,12.36941 0,0 -8.52781,-0.8636 -8.52781,-0.8636 l 0,0 c 6.70477,-4.22951 13.45907,-8.38082 20.29073,-12.40282 7.88845,-4.54526 15.75978,-9.11436 23.84865,-13.29844 4.70698,-2.21779 9.52533,-4.2319 14.48421,-5.8184 0,0 8.4932,1.15544 8.4932,1.15544 z"
       inkscape:connector-curvature="0" />
    <path
       style="fill:#ff0000;fill-opacity:1;stroke:#000000;stroke-width:10;stroke-linecap:round;stroke-linejoin:round;stroke-miterlimit:4;stroke-opacity:1;stroke-dasharray:5, 5;stroke-dashoffset:0"
       id="path3935"
       d="m -554.5097,441.65657 c 6.42741,7.90265 10.68295,17.31236 15.34628,26.30181 4.04075,7.80414 7.76587,15.76784 11.47461,23.73361 0,0 -8.56328,0.3736 -8.56328,0.3736 l 0,0 c -3.70835,-7.9537 -7.43117,-15.90605 -11.47295,-23.69725 -4.61477,-8.89886 -8.80637,-18.28554 -15.32557,-25.98907 0,0 8.54091,-0.7227 8.54091,-0.7227 z"
       inkscape:connector-curvature="0" />
    <path
       style="fill:#ff0000;fill-opacity:1;stroke:#000000;stroke-width:10;stroke-linecap:round;stroke-linejoin:round;stroke-miterlimit:4;stroke-opacity:1;stroke-dasharray:5, 5;stroke-dashoffset:0"
       id="path3937"
       d="m -593.39619,945.45555 c -3.23404,-7.03216 -8.79203,-12.21838 -14.95946,-16.66832 -12.37031,-8.18348 -26.69668,-12.14233 -41.15188,-14.629 -13.15631,-2.29939 -21.79013,-1.57743 -35.52459,0.80703 -9.63256,1.9985 -19.13389,5.08101 -25.86471,12.53179 -4.86116,9.43357 5.36121,14.27563 12.28585,18.21663 11.20057,5.52586 22.76566,10.27092 34.16159,15.37587 9.32471,4.06482 18.54105,8.38832 27.42095,13.35415 8.05424,4.47306 14.60698,10.46217 19.3203,18.35772 3.90046,9.25648 2.74272,15.09408 -3.96401,22.41408 -9.77876,7.2431 -21.63547,10.9814 -33.01003,14.9666 -10.55953,4.3144 -21.06873,4.0371 -32.2828,3.9633 0,0 8.46885,-1.322 8.46885,-1.322 l 0,0 c -1.42853,0.034 -5.63664,0.568 -4.28559,0.1026 1.39679,-0.4811 2.95875,-0.011 4.42936,-0.1522 5.20499,-0.498 10.21478,-2.0475 15.16403,-3.6476 11.3213,-3.9359 23.05213,-7.6646 32.96931,-14.5591 6.70868,-6.8752 7.82186,-12.3914 3.95216,-21.2992 -4.75029,-7.73104 -11.31814,-13.5476 -19.28461,-17.91466 -8.88972,-4.91933 -18.10313,-9.21619 -27.41273,-13.28012 -11.41323,-5.10189 -23.00565,-9.83252 -34.17138,-15.46465 -7.27223,-4.28467 -17.18889,-10.00882 -12.3104,-19.729 6.63032,-7.74394 16.15599,-11.02124 25.92566,-13.10577 17.29721,-3.15352 35.10124,-3.53183 52.50076,-0.80864 14.49543,2.60932 28.85771,6.6707 41.19764,15.01912 6.19742,4.61347 11.79466,9.96092 14.99095,17.1453 0,0 -8.56522,0.32607 -8.56522,0.32607 z"
       inkscape:connector-curvature="0" />
    <path
       style="fill:#ff0000;fill-opacity:1;stroke:#000000;stroke-width:10;stroke-linecap:round;stroke-linejoin:round;stroke-miterlimit:4;stroke-opacity:1;stroke-dasharray:5, 5;stroke-dashoffset:0"
       id="path3939"
       d="m -571.59818,1000.0848 c 9.75576,-2.81104 18.81383,-7.68647 27.89385,-12.14757 11.69558,-5.57478 23.00316,-11.90363 33.42127,-19.61694 5.37613,-4.17831 8.83596,-9.08542 7.99828,-15.98502 -1.05705,-5.46062 -4.19433,-7.7531 -9.30623,-9.13978 1.99546,-0.42082 -8.37007,-0.58207 -6.27117,-0.56789 1.782,0.012 3.60691,-0.25644 5.34429,0.14005 1.00449,0.22924 -2.05135,0.20964 -3.06756,0.37953 -3.02398,0.50555 -3.0289,0.63933 -5.89673,1.62803 -6.49596,2.47241 -11.84393,6.76636 -16.64596,11.67897 -4.01595,4.0058 -5.56784,8.91591 -6.0678,14.40557 -0.0124,4.77008 1.94287,8.83393 4.89862,12.44519 3.62434,3.97504 8.78266,5.50118 13.79996,6.8976 6.36437,1.56775 12.82431,2.80576 19.35234,3.42024 0,0 -8.479,1.25535 -8.479,1.25535 l 0,0 c -6.53327,-0.70817 -13.01202,-1.9194 -19.37336,-3.57152 -5.1173,-1.50896 -10.27651,-3.22776 -13.85198,-7.42539 -2.9843,-3.84335 -4.94465,-8.13227 -4.91766,-13.09842 0.50295,-5.65117 2.01278,-10.80477 6.09275,-14.98675 4.80653,-5.02477 10.15582,-9.44848 16.68464,-12.06614 8.52754,-3.25084 17.97506,-3.24502 26.89998,-1.62815 5.23133,1.71677 8.34178,4.52103 9.37571,10.13324 0.81661,7.17181 -2.41825,12.44896 -8.03475,16.88147 -10.39435,7.80091 -21.71388,14.18017 -33.43729,19.77317 -9.10886,4.49077 -18.19256,9.33567 -27.91901,12.35066 0,0 -8.49319,-1.1555 -8.49319,-1.1555 z"
       inkscape:connector-curvature="0" />
    <path
       style="fill:#ff0000;fill-opacity:1;stroke:#000000;stroke-width:10;stroke-linecap:round;stroke-linejoin:round;stroke-miterlimit:4;stroke-opacity:1;stroke-dasharray:5, 5;stroke-dashoffset:0"
       id="path3941"
       d="m -447.14286,868.00328 c -0.002,13.79803 0.4807,27.59213 0.76914,41.38674 0.44903,23.02259 0.73606,46.04791 1.01145,69.07311 0.0466,17.31117 0.23661,33.84617 6.46746,50.19027 6.35795,13.4645 16.70401,17.018 30.2964,20.261 5.57288,0.9348 11.38616,2.0016 17.07596,1.4567 1.14024,-0.1092 -2.28778,-0.1194 -3.43168,-0.1791 0,0 8.47097,1.3085 8.47097,1.3085 l 0,0 c -10.24347,0.1566 -20.53588,0.8643 -30.61085,-1.4485 -13.78515,-3.448 -24.03866,-7.3987 -30.36663,-21.089 -6.1444,-16.4052 -6.47197,-33.13401 -6.47305,-50.48962 -0.27537,-23.02264 -0.56238,-46.0454 -1.01144,-69.06544 -0.28862,-13.80057 -0.77132,-27.60065 -0.76916,-41.40466 0,0 8.57143,0 8.57143,0 z"
       inkscape:connector-curvature="0" />
    <path
       style="fill:#ff0000;fill-opacity:1;stroke:#000000;stroke-width:10;stroke-linecap:round;stroke-linejoin:round;stroke-miterlimit:4;stroke-opacity:1;stroke-dasharray:5, 5;stroke-dashoffset:0"
       id="path3943"
       d="m -477.11596,15.983075 c -5.52418,0.561818 -11.06566,0.915563 -16.60841,1.230443 -6.23987,0.343015 -12.48539,0.564577 -18.73148,0.755561 -5.84564,0.257285 -11.62024,0.857971 -17.25375,2.460047 -6.74872,2.13002 -13.11278,5.162893 -19.27548,8.606817 -8.8026,5.234542 -16.52695,11.952158 -24.0017,18.892075 -7.47074,7.286023 -13.64591,15.589042 -18.64244,24.717889 -3.63655,6.918648 -6.85878,13.976779 -4.36265,21.726772 4.29791,7.438441 12.60846,10.675861 20.24816,13.628811 9.76294,3.57596 20.00447,5.43013 30.30635,6.54652 6.66322,0.55579 13.38726,0.8448 20.07643,0.65107 1.28373,-0.0372 -5.03536,0.47443 -3.85272,-0.0263 1.32171,-0.55959 2.8685,-0.10949 4.30274,-0.16424 7.31511,-0.19738 14.54702,-1.15461 21.72473,-2.51849 4.26687,-0.82235 2.14052,-0.41982 6.37899,-1.20791 0,0 8.489,1.18583 8.489,1.18583 l 0,0 c -4.23802,0.77958 -2.11193,0.37905 -6.37817,1.20205 -7.18336,1.39465 -14.41274,2.44851 -21.74314,2.64414 -12.46668,0.56224 -25.03453,0.44187 -37.47823,-0.52007 -10.31904,-1.19981 -20.57714,-3.09836 -30.33613,-6.76944 -7.80556,-3.11432 -16.18165,-6.57021 -20.30553,-14.393118 -2.42027,-8.019672 0.5654,-15.248864 4.3694,-22.41285 4.99562,-9.221574 11.16684,-17.613579 18.66068,-24.993847 7.4926,-6.989829 15.21967,-13.766521 24.02067,-19.093559 6.16836,-3.508608 12.54008,-6.586105 19.29823,-8.800121 5.63664,-1.715744 11.40282,-2.398228 17.28467,-2.677458 6.24484,-0.185206 12.48915,-0.400288 18.72811,-0.73369 5.54048,-0.305597 11.08011,-0.644582 16.60283,-1.193365 0,0 8.47884,1.256423 8.47884,1.256423 z"
       inkscape:connector-curvature="0" />
    <path
       style="fill:#000080;fill-opacity:1;stroke:#000000;stroke-width:10;stroke-linecap:round;stroke-linejoin:round;stroke-miterlimit:4;stroke-opacity:1;stroke-dasharray:5, 5;stroke-dashoffset:0"
       id="path3945"
       d="m 870.4044,159.15844 c 2.43002,7.54231 4.47284,15.20318 6.33557,22.90321 2.33125,10.14151 3.79734,20.44502 5.08324,30.7617 1.02464,10.1212 2.29787,20.21392 3.40554,30.32618 1.13326,8.43883 2.35169,16.86406 3.84511,25.24669 1.3366,7.12736 2.37355,14.30184 3.20828,21.50355 0.79324,7.09109 1.27079,14.21214 1.69997,21.33291 0.50184,6.00864 0.36261,12.02806 0.20297,18.04619 0,0 -8.5714,-0.0227 -8.5714,-0.0227 l 0,0 c 0.15928,-5.99338 0.29845,-11.98792 -0.20284,-17.97181 -0.42882,-7.105 -0.90588,-14.2103 -1.69956,-21.2855 -0.83508,-7.18439 -1.87422,-14.34115 -3.20752,-21.4516 -1.49433,-8.40164 -2.71369,-16.84616 -3.84592,-25.30412 -1.10817,-10.10791 -2.37864,-20.19668 -3.4054,-30.31336 -1.28421,-10.2845 -2.7486,-20.55608 -5.08147,-30.66433 -1.86321,-7.67582 -3.90077,-15.31423 -6.33357,-22.83122 0,0 8.567,-0.27574 8.567,-0.27574 z"
       inkscape:connector-curvature="0" />
    <path
       style="fill:#000080;fill-opacity:1;stroke:#000000;stroke-width:10;stroke-linecap:round;stroke-linejoin:round;stroke-miterlimit:4;stroke-opacity:1;stroke-dasharray:5, 5;stroke-dashoffset:0"
       id="path3947"
       d="m 870.8221,182.43085 c 4.45295,-5.91538 9.51524,-11.3067 14.89939,-16.37397 7.10363,-6.37688 15.27145,-10.08479 25.06462,-5.91229 5.86451,4.32698 9.64958,10.55356 11.96433,17.34957 2.67322,8.43676 2.00638,16.90534 0.0411,25.37476 -2.09481,7.89545 -6.07663,15.089 -10.63931,21.80217 -3.66408,5.74476 -9.36479,9.73589 -13.35727,15.16632 -0.17997,0.74746 -0.5882,1.47508 -0.5399,2.24238 0.35827,5.69113 12.42208,11.35248 16.50545,13.63152 11.20795,6.23256 22.90712,11.50312 34.21678,17.53934 10.77783,5.72293 20.76141,12.7609 31.15211,19.12345 4.05303,2.46562 8.31907,4.51266 12.63272,6.46687 0,0 -8.51567,0.97612 -8.51567,0.97612 l 0,0 c -4.31413,-1.99757 -8.58605,-4.07803 -12.64395,-6.57043 -10.36079,-6.39016 -20.36657,-13.37466 -31.1465,-19.07027 -11.33143,-6.0013 -23.02145,-11.30064 -34.21894,-17.55948 -4.78933,-2.71365 -16.21157,-8.08763 -16.5513,-14.72823 -0.045,-0.87951 0.36953,-1.72212 0.55429,-2.58319 3.85752,-5.53679 9.65715,-9.42819 13.35619,-15.1487 4.55313,-6.60034 8.51759,-13.69719 10.62613,-21.48474 1.95877,-8.31178 2.62806,-16.61356 -0.0386,-24.89248 -2.29665,-6.53506 -5.98254,-12.73199 -11.90619,-16.59857 -1.87299,-0.60495 -8.87849,-2.56056 3.42136,-0.99646 0.89667,0.11402 -1.79611,0.29414 -2.64081,0.61584 -3.32895,1.26782 -6.02649,3.83 -8.79391,5.95737 -5.38562,5.01019 -10.43795,10.35465 -14.88842,16.2243 0,0 -8.55369,-0.5512 -8.55369,-0.5512 z"
       inkscape:connector-curvature="0" />
    <path
       style="fill:#000080;fill-opacity:1;stroke:#000000;stroke-width:10;stroke-linecap:round;stroke-linejoin:round;stroke-miterlimit:4;stroke-opacity:1;stroke-dasharray:5, 5;stroke-dashoffset:0"
       id="path3949"
       d="m 1067.0071,182.33171 c -0.5272,12.9526 -1.3339,25.8766 -2.5842,38.78145 -2.1912,20.60334 -3.9065,41.251 -5.3699,61.91738 -0.6517,9.4065 -1.2196,18.81841 -1.7847,28.2304 0,0 -8.5712,-0.0514 -8.5712,-0.0514 l 0,0 c 0.565,-9.41506 1.133,-18.83003 1.7847,-28.2396 1.4632,-20.67382 3.1776,-41.32902 5.3701,-61.93968 1.2532,-12.90548 2.0603,-25.83031 2.5842,-38.784 0,0 8.571,0.0854 8.571,0.0854 z"
       inkscape:connector-curvature="0" />
    <path
       style="fill:#000080;fill-opacity:1;stroke:#000000;stroke-width:10;stroke-linecap:round;stroke-linejoin:round;stroke-miterlimit:4;stroke-opacity:1;stroke-dasharray:5, 5;stroke-dashoffset:0"
       id="path3951"
       d="m 1091.4693,212.88136 c 9.3026,6.151 16.6247,14.71942 23.7768,23.15632 7.9762,9.55241 15.1048,19.76784 22.5961,29.69866 6.0679,8.19668 12.9916,15.66214 20.7664,22.24844 -5.224,1.34195 11.185,3.91429 8.3079,3.01054 -1.8575,-0.58346 -4.4753,0.57343 -5.7747,-0.8764 -0.8351,-0.93168 2.1649,-1.27758 3.1225,-2.08272 1.3369,-1.12404 2.4873,-2.45291 3.731,-3.67937 9.7158,-11.24662 17.6822,-23.85168 25.7966,-36.26259 0,0 8.5571,0.4959 8.5571,0.4959 l 0,0 c -8.1379,12.45635 -16.1342,25.09139 -25.8085,36.43718 -0.7068,0.72324 -5.17,5.71321 -6.8901,6.12768 -7.9489,1.91533 -13.5025,2.38998 -19.5812,-2.43022 -7.7634,-6.6715 -14.6941,-14.19386 -20.7805,-22.43489 -7.4825,-9.91991 -14.5974,-20.12937 -22.5927,-29.64892 -7.1338,-8.37256 -14.4429,-16.86636 -23.7549,-22.90043 0,0 8.5282,-0.85918 8.5282,-0.85918 z"
       inkscape:connector-curvature="0" />
    <path
       style="fill:#000080;fill-opacity:1;stroke:#000000;stroke-width:10;stroke-linecap:round;stroke-linejoin:round;stroke-miterlimit:4;stroke-opacity:1;stroke-dasharray:5, 5;stroke-dashoffset:0"
       id="path3953"
       d="m 1281.0204,199.68148 c -1.6771,7.53016 -3.9536,14.89585 -6.4016,22.20492 -2.8849,9.04851 -5.972,18.0256 -9.1072,26.9902 -2.8806,8.51671 -5.7117,17.04964 -8.5818,25.57004 -2.3397,7.21075 -4.9204,14.34189 -7.4751,21.47889 -2.5414,6.27123 -5.0265,12.5684 -7.5901,18.83118 0,0 -8.5649,-0.33404 -8.5649,-0.33404 l 0,0 c 2.5748,-6.24433 5.0199,-12.54495 7.5886,-18.7916 2.5509,-7.13292 5.1386,-14.25624 7.4745,-21.4628 2.8696,-8.52405 5.7078,-17.05787 8.5822,-25.58011 3.1364,-8.96054 6.2276,-17.93244 9.1069,-26.97916 2.4503,-7.29122 4.7376,-14.63837 6.4001,-22.15571 0,0 8.5684,0.22819 8.5684,0.22819 z"
       inkscape:connector-curvature="0" />
    <path
       style="fill:#000080;fill-opacity:1;stroke:#000000;stroke-width:10;stroke-linecap:round;stroke-linejoin:round;stroke-miterlimit:4;stroke-opacity:1;stroke-dasharray:5, 5;stroke-dashoffset:0"
       id="path3955"
       d="m 1290.8044,181.74232 c 5.3948,6.47727 10.1784,13.42404 14.8602,20.42425 6.4478,10.32868 13.1048,20.52548 19.587,30.83181 5.9687,9.23292 11.3728,18.81346 16.3655,28.60423 4.0809,8.08899 7.673,16.37699 10.7124,24.90876 2.5755,7.34328 4.4507,14.89292 5.915,22.52717 1.1341,6.38956 2.1944,12.79631 3.5321,19.14685 0,0 -8.5696,0.17734 -8.5696,0.17734 l 0,0 c -1.3298,-6.35709 -2.3965,-12.76711 -3.5324,-19.1613 -1.4646,-7.59081 -3.3392,-15.09687 -5.9115,-22.39608 -3.0415,-8.49354 -6.637,-16.7436 -10.7078,-24.79786 -5.0015,-9.76095 -10.3998,-19.31692 -16.3616,-28.52764 -6.4904,-10.29293 -13.1167,-20.50067 -19.5856,-30.8075 -4.6885,-6.98184 -9.488,-13.89653 -14.8574,-20.37884 0,0 8.5537,-0.55119 8.5537,-0.55119 z"
       inkscape:connector-curvature="0" />
    <path
       style="fill:#000080;fill-opacity:1;stroke:#000000;stroke-width:10;stroke-linecap:round;stroke-linejoin:round;stroke-miterlimit:4;stroke-opacity:1;stroke-dasharray:5, 5;stroke-dashoffset:0"
       id="path3957"
       d="m 1268.4083,285.88881 c 5.1903,-0.58278 10.4034,-0.91984 15.6155,-1.23371 4.9862,-0.45345 9.9539,-1.08316 14.9326,-1.61049 0,0 8.4795,1.25229 8.4795,1.25229 l 0,0 c -4.9832,0.5179 -9.9556,1.12796 -14.9384,1.64891 -5.2093,0.3041 -10.42,0.62728 -15.609,1.1901 0,0 -8.4802,-1.2471 -8.4802,-1.2471 z"
       inkscape:connector-curvature="0" />
    <path
       style="fill:#000080;fill-opacity:1;stroke:#000000;stroke-width:10;stroke-linecap:round;stroke-linejoin:round;stroke-miterlimit:4;stroke-opacity:1;stroke-dasharray:5, 5;stroke-dashoffset:0"
       id="path3959"
       d="m 69.728492,-165.67947 c -2.945168,17.95965 -3.995497,36.17879 -5.586802,54.29383 C 60.592158,-73.345633 55.171408,-35.514164 49.462286,2.2513109 41.184279,53.820638 34.615027,105.63134 28.27134,157.46688 22.083255,206.10872 15.497019,254.70043 8.7900366,303.27346 c -5.2880269,37.65568 -9.56976592,75.43765 -13.3689932,113.26898 -2.7942051,27.78131 -4.6700059,55.6539 -5.8217864,83.54971 -0.684061,22.39013 -0.251899,44.78429 0.35124,67.16914 0.5058784,17.25615 0.9806548,34.51309 1.3861228,51.7719 0.3148945,13.67297 0.5454781,27.34765 0.7525509,41.02262 0.027618,1.84889 0.055236,3.69778 0.082854,5.54667 0,0 -8.571419,0.0128 -8.571419,0.0128 l 0,0 c -0.02762,-1.84883 -0.05524,-3.69766 -0.08285,-5.54649 -0.207062,-13.67258 -0.43764,-27.34488 -0.752537,-41.01546 -0.405509,-17.25783 -0.880354,-34.51378 -1.386115,-51.76896 -0.603476,-22.40433 -1.035134,-44.81796 -0.351198,-67.22757 1.151347,-27.91261 3.027519,-55.80203 5.822142,-83.60014 3.79929,-37.84192 8.0804996,-75.63459 13.36937093,-113.3008 C 6.9258553,254.58717 13.51197,205.99987 19.700547,157.36251 26.044284,105.51891 32.61248,53.69993 40.891822,2.1226906 46.60023,-35.624967 52.019847,-73.438687 55.570591,-111.46075 c 1.593148,-18.13016 2.641382,-36.36563 5.587336,-54.34035 0,0 8.570565,0.12163 8.570565,0.12163 z"
       inkscape:connector-curvature="0" />
    <path
       style="fill:#000080;fill-opacity:1;stroke:#000000;stroke-width:10;stroke-linecap:round;stroke-linejoin:round;stroke-miterlimit:4;stroke-opacity:1;stroke-dasharray:5, 5;stroke-dashoffset:0"
       id="path3961"
       d="m -68.937631,569.74967 c 5.477054,4.48028 9.969956,9.9926 14.412256,15.46069 5.334432,7.06875 10.599564,14.1924 15.842766,21.3305 4.221095,6.22558 8.226532,12.58564 13.15853,18.28068 3.697618,4.10056 7.839202,7.30822 13.39061,8.00386 -1.710462,-0.0527 -4.164947,1.25406 -5.131386,-0.15819 -0.852351,-1.24554 2.990561,-0.4518 4.449514,-0.83823 1.991858,-0.52757 3.9406637,-1.21026 5.8828868,-1.89844 8.5353537,-3.02432 16.7231487,-6.76994 24.9186352,-10.59749 8.813321,-4.19366 17.386295,-8.85088 25.928462,-13.56283 0,0 8.522788,0.91186 8.522788,0.91186 l 0,0 c -8.543363,4.73195 -17.119722,9.40464 -25.934722,13.61955 -8.205584,3.86122 -16.403258,7.59103 -24.9307472,10.69862 -2.12736498,0.77526 -7.702721,2.8131 -10.3668192,2.9817 -3.9338036,0.24895 -7.8832806,0.0323 -11.8249206,0.0484 -5.543738,-1.09642 -9.752882,-4.39382 -13.454173,-8.60132 -4.89226,-5.74909 -8.906272,-12.12396 -13.162891,-18.34552 -5.236019,-7.12816 -10.487304,-14.24793 -15.839936,-21.28758 -4.407371,-5.39293 -8.846324,-10.89782 -14.38841,-15.18016 0,0 8.527557,-0.86612 8.527557,-0.86612 z"
       inkscape:connector-curvature="0" />
    <path
       style="fill:#000080;fill-opacity:1;stroke:#000000;stroke-width:10;stroke-linecap:round;stroke-linejoin:round;stroke-miterlimit:4;stroke-opacity:1;stroke-dasharray:5, 5;stroke-dashoffset:0"
       id="path3963"
       d="m 519.83688,757.31738 c 18.82834,-0.31453 37.67917,0.30366 56.49627,0.96696 52.8967,1.7802 105.78918,3.63137 158.69723,5.05448 81.29355,2.01755 162.60622,3.10137 243.91762,4.08488 81.6196,0.94523 163.2425,1.5661 244.8656,2.1157 70.4103,0.46539 140.8213,0.79201 211.2324,1.06787 61.473,0.30403 122.9446,-0.7164 184.4124,-1.41298 55.4682,-0.63245 110.938,-1.11501 166.4079,-1.56745 36.2934,-0.3183 72.5881,-0.39075 108.8758,-1.14267 0,0 8.4687,1.3232 8.4687,1.3232 l 0,0 c -36.2882,0.76272 -72.5834,0.83971 -108.8775,1.15344 -55.4698,0.45181 -110.9394,0.9331 -166.4075,1.56475 -67.1122,0.76029 -134.2279,1.82544 -201.3462,1.41926 -70.4113,-0.27661 -140.8224,-0.60401 -211.2328,-1.07026 -81.6233,-0.55068 -163.2464,-1.17281 -244.86632,-2.12024 -81.3121,-0.98596 -162.62548,-2.07213 -243.91958,-4.09744 -52.90826,-1.42837 -105.80119,-3.28067 -158.69827,-5.06116 -15.16806,-0.5219 -29.83715,-0.99155 -39.54553,-1.03124 0,0 -8.48022,-1.2471 -8.48022,-1.2471 z"
       inkscape:connector-curvature="0" />
    <path
       style="fill:#000080;fill-opacity:1;stroke:#000000;stroke-width:10;stroke-linecap:round;stroke-linejoin:round;stroke-miterlimit:4;stroke-opacity:1;stroke-dasharray:5, 5;stroke-dashoffset:0"
       id="path3965"
       d="m 1815.9843,539.2026 c 2.7373,14.12655 5.2169,28.30146 8.1228,42.40145 5.6493,25.69123 10.4226,51.56558 15.1118,77.44614 3.2425,15.54471 5.2896,31.4998 10.6907,46.50174 -5.3458,-0.29691 3.0458,2.96657 1.9925,2.64037 -2.6856,-0.83175 -5.8735,-0.81786 -8.0083,-2.64746 -1.0069,-0.86296 0.2453,-2.6424 0.2896,-3.96776 0.1648,-4.92933 -0.049,-6.11292 -0.3808,-11.25878 -1.4352,-17.84739 -2.8029,-35.70022 -4.1468,-53.55481 -1.237,-16.39423 -2.4666,-32.78585 -2.9839,-49.2203 -0.7309,-12.00279 -0.1997,-23.75455 3.7033,-35.16465 5.0697,-11.9037 14.6502,-20.56429 24.4554,-28.58149 8.3398,-6.80018 17.4087,-12.31638 27.511,-15.99655 10.8415,-2.645 21.9328,-3.21673 32.0279,2.33676 6.8149,4.53899 11.3551,11.34494 15.2418,18.39202 4.11,8.56713 3.7726,14.41261 -0.01,22.99325 -7.7003,12.87944 -18.9209,23.02198 -30.1583,32.74638 -8.1606,7.26412 -17.4161,12.97012 -26.9681,18.16439 4.4337,-2.89389 -3.274,1.74444 -2.4026,1.41916 3.4928,-1.3038 8.3658,-0.49326 12.1243,-0.48146 -1.0498,-0.001 -4.1991,0.004 -3.1494,-0.003 11.227,-0.0737 22.5156,-0.43436 33.6885,0.7791 9.596,1.26708 17.2963,6.26848 24.4438,12.45846 7.7563,7.23532 13.7588,16.07709 19.7676,24.75467 4.7265,6.87825 9.4811,13.70517 15.3204,19.69121 2.0365,1.68204 2.0595,2.05197 4.5282,2.82089 0.7286,0.22693 3.0108,0.39773 2.2484,0.43123 -11.6677,0.51267 -4.8632,-0.46448 -1.6408,-2.24787 4.4517,-2.60596 7.9345,-6.44538 11.5115,-10.08783 0,0 8.5456,0.66496 8.5456,0.66496 l 0,0 c -3.6143,3.67712 -7.0852,7.60705 -11.5321,10.31377 -6.81,4.20094 -16.28,4.50953 -22.207,-1.23725 -5.8062,-6.06427 -10.5809,-12.92415 -15.3299,-19.82955 -5.9904,-8.61886 -11.9667,-17.41032 -19.7515,-24.53592 -7.1515,-6.05997 -14.8531,-10.84861 -24.3834,-11.94259 -12.5414,-1.2132 -10.0847,-0.49427 -30.5263,-0.69275 -1.1722,-0.006 -18.0649,0.9643 -9.7775,-3.19194 9.5063,-5.19285 18.8296,-10.7114 26.9505,-17.98265 11.1893,-9.63138 22.3459,-19.67042 30.1343,-32.37269 3.8064,-8.32684 4.0829,-13.87148 0.013,-22.19717 -3.8715,-6.91271 -8.372,-13.59128 -15.2026,-17.90047 -1.1768,-0.60239 -2.3071,-1.30579 -3.5303,-1.80716 -1.2161,-0.49848 -4.3227,0.007 -3.7618,-1.18172 0.6601,-1.39874 3.5345,0.52231 4.6014,-0.59744 2.853,-2.99424 -16.2981,3.22805 -12.3091,1.37327 -10.1077,3.53443 -19.1584,8.952 -27.4802,15.70663 -9.7365,7.88405 -19.3066,16.37835 -24.4264,28.10631 -3.9327,11.29757 -4.4162,22.95169 -3.6986,34.85291 0.5176,16.42195 1.7484,32.80107 2.9837,49.18289 1.3443,17.85772 2.713,35.71364 4.1469,53.5643 0.074,1.16502 0.9031,14.79824 0.09,15.43622 -7.2877,5.71795 -8.8041,5.09422 -11.1206,0.14669 -5.3539,-15.06662 -7.4678,-31.04424 -10.6943,-46.64246 -4.6894,-25.87374 -9.4645,-51.74079 -15.1115,-77.42567 -2.9024,-14.09618 -5.3753,-28.26775 -8.1224,-42.38815 0,0 8.5693,-0.18742 8.5693,-0.18742 z"
       inkscape:connector-curvature="0" />
    <path
       style="fill:#000080;fill-opacity:1;stroke:#000000;stroke-width:10;stroke-linecap:round;stroke-linejoin:round;stroke-miterlimit:4;stroke-opacity:1;stroke-dasharray:5, 5;stroke-dashoffset:0"
       id="path3967"
       d="m 519.83039,854.37053 c 7.48638,-1.58898 15.15187,-2.0219 22.7708,-2.49109 15.61748,-0.79858 31.25298,-1.16279 46.88578,-1.50547 16.95698,0.0139 33.86905,-1.13073 50.77702,-2.27755 14.16214,-0.85999 28.29251,-2.14051 42.44217,-3.17273 13.98507,-0.99225 27.9889,-1.68393 41.99553,-2.28354 13.40861,-0.56417 26.82513,-0.89879 40.24219,-1.17865 15.10127,-0.29933 30.20478,-0.45833 45.30823,-0.59503 19.7729,-0.34887 39.54288,0.0594 59.31051,0.47689 17.5166,0.20305 35.015,1.03201 52.52017,1.63648 23.15337,0.77699 46.31747,1.1431 69.48081,1.46037 32.7074,0.48003 65.4199,0.38967 98.1243,1.0382 43.6565,1.15529 87.318,2.07535 130.9835,2.80878 50.0169,1.03553 99.9995,3.05021 149.9805,5.1372 44.7879,1.76635 89.5334,4.44369 134.2997,6.67454 33.7153,1.67235 67.4428,3.07896 101.1769,4.30783 24.7561,0.88448 49.5188,1.56402 74.2823,2.19864 16.9254,0.43734 33.8525,0.79747 50.7806,1.10813 12.4983,0.22693 24.9973,0.40668 37.4967,0.55733 10.8288,0.12566 21.6581,0.20596 32.4874,0.27998 9.9012,0.0702 19.8025,0.10973 29.7039,0.14064 12.2145,0.0349 24.4291,0.0535 36.6436,0.0709 10.5121,0.0147 21.0242,0.026 31.5363,0.0359 8.6376,0.008 17.2752,0.0134 25.9129,0.018 0,0 -8.466,1.3404 -8.466,1.3404 l 0,0 c -8.6377,-0.005 -17.2753,-0.0104 -25.913,-0.0184 -10.5121,-0.0101 -21.0242,-0.0215 -31.5363,-0.0363 -12.2146,-0.0177 -24.4292,-0.0366 -36.6438,-0.0724 -9.9016,-0.0318 -19.8031,-0.0729 -29.7044,-0.14378 -10.8296,-0.075 -21.6591,-0.15653 -32.4882,-0.28443 -12.4996,-0.15281 -24.9989,-0.33416 -37.4974,-0.56266 -16.9285,-0.31332 -33.8559,-0.67578 -50.7816,-1.11426 -24.7641,-0.63681 -49.5272,-1.31946 -74.2837,-2.2078 -33.7347,-1.2335 -67.4627,-2.64405 -101.1786,-4.31914 -44.7657,-2.23467 -89.511,-4.90785 -134.2987,-6.66767 -49.9797,-2.08642 -99.9616,-4.09026 -149.9772,-5.11612 -43.6656,-0.7369 -87.327,-1.66498 -130.9839,-2.81105 -32.7044,-0.62851 -65.4165,-0.5517 -98.12354,-1.03335 -23.16434,-0.32128 -46.32942,-0.69249 -69.48357,-1.47806 -17.50423,-0.60991 -35.00254,-1.4209 -52.51838,-1.62498 -14.16867,-0.29879 -28.22666,-0.76792 -42.37469,-0.46663 -15.10292,0.13446 -30.20588,0.2909 -45.30668,0.58513 -13.41602,0.27496 -26.83156,0.60335 -40.23932,1.16015 -14.0052,0.59219 -28.0076,1.27675 -41.99167,2.25816 -14.15085,1.02213 -28.28032,2.31531 -42.44276,3.17664 -16.90995,1.15123 -33.82307,2.3428 -50.78302,2.3166 -15.63094,0.33757 -31.26409,0.70078 -46.88078,1.47303 -7.60902,0.44641 -15.26039,0.85768 -22.75141,2.35653 0,0 -8.49319,-1.15544 -8.49319,-1.15544 z"
       inkscape:connector-curvature="0" />
    <path
       style="fill:#000080;fill-opacity:1;stroke:#000000;stroke-width:10;stroke-linecap:round;stroke-linejoin:round;stroke-miterlimit:4;stroke-opacity:1;stroke-dasharray:5, 5;stroke-dashoffset:0"
       id="path3969"
       d="m 1830.1354,965.24282 c 1.0584,8.17577 1.8281,16.38505 2.715,24.58084 1.3302,11.67764 1.9131,23.41924 2.8841,35.12744 0.9502,10.3598 1.8814,20.7209 2.6836,31.0934 0.9789,10.0959 2.2381,20.1645 3.5642,30.2203 0.9822,7.2421 0.4466,3.6743 1.5992,10.7045 0,0 -8.5703,0.139 -8.5703,0.139 l 0,0 c -1.1519,-7.0549 -0.6164,-3.4782 -1.5996,-10.7312 -1.3255,-10.0713 -2.5897,-20.1547 -3.5646,-30.2664 -0.8027,-10.3709 -1.7347,-20.7304 -2.6836,-31.0888 -0.9683,-11.7011 -1.5539,-23.4354 -2.8839,-35.10583 -0.8878,-8.20063 -1.6601,-16.41436 -2.7152,-24.59554 0,0 8.5711,-0.0777 8.5711,-0.0777 z"
       inkscape:connector-curvature="0" />
    <path
       style="fill:#000080;fill-opacity:1;stroke:#000000;stroke-width:10;stroke-linecap:round;stroke-linejoin:round;stroke-miterlimit:4;stroke-opacity:1;stroke-dasharray:5, 5;stroke-dashoffset:0"
       id="path3971"
       d="m 1854.1226,1045.8888 c 2.2373,-0.2504 4.4801,-0.4461 6.7225,-0.6438 0,0 8.4772,1.2675 8.4772,1.2675 l 0,0 c -2.2413,0.1915 -4.4829,0.3814 -6.7195,0.6234 0,0 -8.4802,-1.2471 -8.4802,-1.2471 z"
       inkscape:connector-curvature="0" />
    <path
       style="fill:#000080;fill-opacity:1;stroke:#000000;stroke-width:10;stroke-linecap:round;stroke-linejoin:round;stroke-miterlimit:4;stroke-opacity:1;stroke-dasharray:5, 5;stroke-dashoffset:0"
       id="path3973"
       d="m 1887.5477,956.44981 c 2.7372,16.55091 5.0973,33.16678 7.2541,49.80409 2.14,17.3725 3.7087,34.8068 5.5262,52.2142 0,0 -8.5709,0.089 -8.5709,0.089 l 0,0 c -1.816,-17.4004 -3.3851,-34.8276 -5.526,-52.1929 -2.1524,-16.59079 -4.4908,-33.16522 -7.2512,-49.6648 0,0 8.5678,-0.24979 8.5678,-0.24979 z"
       inkscape:connector-curvature="0" />
    <path
       style="fill:#000080;fill-opacity:1;stroke:#000000;stroke-width:10;stroke-linecap:round;stroke-linejoin:round;stroke-miterlimit:4;stroke-opacity:1;stroke-dasharray:5, 5;stroke-dashoffset:0"
       id="path3975"
       d="m 1901.4286,993.58203 c 0,5.6323 0,11.26457 0,16.89687 -0.1232,6.987 0.1873,13.9731 0.9044,20.9227 0.6163,6.4032 1.6495,12.7375 2.7736,19.0663 1.1606,6.176 1.8088,12.426 2.3791,18.6787 0.3836,4.3323 0.6594,8.6727 0.9204,13.0137 0,0 -8.5712,0.052 -8.5712,0.052 l 0,0 c -0.2609,-4.3322 -0.5366,-8.6638 -0.9202,-12.9872 -0.5697,-6.2287 -1.2193,-12.4542 -2.3782,-18.6061 -1.1277,-6.3493 -2.154,-12.7059 -2.7745,-19.1293 -0.7136,-6.9792 -1.0296,-13.994 -0.9049,-21.0104 0,-5.6323 0,-11.26457 0,-16.89687 0,0 8.5715,0 8.5715,0 z"
       inkscape:connector-curvature="0" />
    <path
       style="fill:#000080;fill-opacity:1;stroke:#000000;stroke-width:10;stroke-linecap:round;stroke-linejoin:round;stroke-miterlimit:4;stroke-opacity:1;stroke-dasharray:5, 5;stroke-dashoffset:0"
       id="path3977"
       d="m -1330.1358,-311.95401 c -1.4485,16.99413 -4.04,33.88746 -6.1391,50.81574 -2.4477,18.60383 -4.9369,37.20184 -7.3265,55.81325 0,0 -8.5708,-0.10944 -8.5708,-0.10944 l 0,0 c 2.389,-18.61025 4.8776,-37.2071 7.3265,-55.80953 2.0973,-16.9217 4.6898,-33.80843 6.1389,-50.79545 0,0 8.571,0.0854 8.571,0.0854 z"
       inkscape:connector-curvature="0" />
    <path
       style="fill:#000080;fill-opacity:1;stroke:#000000;stroke-width:10;stroke-linecap:round;stroke-linejoin:round;stroke-miterlimit:4;stroke-opacity:1;stroke-dasharray:5, 5;stroke-dashoffset:0"
       id="path3979"
       d="m 1439.2546,1262.3537 c 2.8907,-5.8908 6.211,-11.5241 9.7888,-17.0218 3.8382,-6.0725 8.978,-10.9278 14.6964,-15.1821 6.0201,-4.0131 12.7383,-6.8399 19.7275,-8.6332 8.0669,-1.2641 16.8181,-2.1805 23.8238,2.5609 4.4076,3.9088 6.5339,9.4986 8.417,14.9294 2.2639,6.6976 2.495,13.7514 2.0409,20.7374 -0.9106,7.8969 -4.0617,15.0029 -8.1694,21.703 -4.2874,7.2008 -10.1372,13.0479 -16.4253,18.4849 -7.4549,6.1155 -15.6599,11.1741 -23.9478,16.0573 -3.0695,2.2325 -12.2647,5.7781 -9.2065,10.8694 9.4868,5.5452 21.1574,6.6684 31.8377,8.3865 14.1642,1.9503 28.3741,3.5628 42.5776,5.1991 0,0 -8.4807,1.2435 -8.4807,1.2435 l 0,0 c -14.2064,-1.6408 -28.4217,-3.2429 -42.5833,-5.2382 -10.6101,-1.741 -23.0352,-2.6366 -31.9132,-9.1869 -2.7968,-6.3054 4.9957,-9.2614 9.2432,-12.1624 8.2668,-4.856 16.4678,-9.8532 23.9334,-15.9053 6.2685,-5.3533 12.1323,-11.0901 16.4066,-18.2219 4.0848,-6.5635 7.2415,-13.5138 8.1565,-21.2851 0.4538,-6.8737 0.2216,-13.8111 -2.0363,-20.3931 -1.8543,-5.2647 -3.9183,-10.7364 -8.379,-14.3612 -1.8822,-1.1382 -2.1081,-1.4401 -4.2504,-2.0665 -0.8055,-0.2355 -3.2836,-0.3527 -2.4623,-0.5254 1.8855,-0.3966 3.852,-0.1082 5.7777,-0.1719 1.9604,-0.065 -8.0423,0.1216 -5.8644,0.4831 -6.974,1.6355 -13.6482,4.4295 -19.6895,8.2991 -5.711,4.1345 -10.8467,8.8851 -14.6731,14.875 -3.5833,5.4727 -6.9286,11.0724 -9.7855,16.9608 0,0 -8.5604,-0.4344 -8.5604,-0.4344 z"
       inkscape:connector-curvature="0" />
    <path
       style="fill:#000080;fill-opacity:1;stroke:#000000;stroke-width:10;stroke-linecap:round;stroke-linejoin:round;stroke-miterlimit:4;stroke-opacity:1;stroke-dasharray:5, 5;stroke-dashoffset:0"
       id="path3981"
       d="m -562.75838,1494.2552 c 10.95951,-3.2265 21.01855,-8.9989 31.14745,-14.1685 31.72835,-17.1423 64.32022,-32.5339 97.15995,-47.4025 49.97041,-20.902 98.96439,-43.8924 147.25379,-68.4036 31.1278,-16.2433 61.29462,-34.3511 89.71676,-54.9897 17.16084,-12.4613 22.61472,-17.2314 39.03864,-30.5289 36.44061,-29.83 69.44637,-63.4666 102.473696,-96.9436 28.738789,-28.4848 54.8977683,-59.3029 79.303668,-91.5318 22.04388,-30.4179 42.794779,-61.7423 64.173278,-92.62617 20.660978,-29.71878 42.599558,-58.52099 65.637498,-86.43014 21.74894,-27.07266 45.34395,-52.51752 69.35048,-77.57541 21.51198,-23.25686 45.01223,-44.45571 69.09772,-64.98014 24.37874,-20.12081 49.6464,-39.12997 75.27338,-57.62258 29.14077,-21.19325 61.14529,-37.66053 93.75021,-52.74001 36.73115,-16.42948 74.37108,-30.69559 111.9297,-45.09142 42.86576,-16.03545 86.35064,-30.27116 130.09449,-43.69097 46.08925,-13.82572 92.32983,-27.17046 138.84325,-39.49806 43.02601,-11.20816 86.17869,-21.93716 129.5963,-31.523 41.01142,-9.01566 82.63482,-14.61907 124.18482,-20.43272 38.1509,-5.42103 76.2948,-10.82855 114.5105,-15.77552 46.9543,-6.57521 94.1958,-10.71688 141.3212,-15.82232 51.3259,-5.75943 102.2845,-14.28006 152.9246,-24.34907 39.7678,-8.65505 79.6901,-17.20377 118.5382,-29.48724 7.507,-2.37364 14.9118,-5.05908 22.3677,-7.58863 42.7804,-14.94901 82.2775,-37.11127 120.0132,-61.89854 34.5986,-24.34457 67.6339,-50.83346 101.0567,-76.75212 33.1237,-25.56878 66.4041,-50.93529 100.041,-75.82576 29.7337,-21.84492 60.0554,-42.8912 91.2306,-62.62636 12.6103,-7.975175 25.3153,-15.798092 37.9647,-23.710881 0,0 8.5276,0.865685 8.5276,0.865685 l 0,0 c -12.647,7.915227 -25.3534,15.734036 -37.9643,23.706796 -31.1823,19.69922 -61.4926,40.73969 -91.2246,62.56405 -33.6392,24.88004 -66.9159,50.24415 -100.0391,75.8064 -33.4342,25.92883 -66.4875,52.41638 -101.0631,76.81851 -37.7381,24.85577 -77.2421,47.08945 -120.0374,62.11494 -7.4574,2.54137 -14.8628,5.24066 -22.3722,7.62412 -38.8442,12.32912 -78.7768,20.88242 -118.5484,29.56325 -50.6418,10.09915 -101.605,18.63832 -152.9353,24.42421 -47.123,5.11397 -94.3651,9.23583 -141.3186,15.80473 -38.215,4.94707 -76.3609,10.33273 -114.5092,15.76678 -41.5429,5.81477 -83.1654,11.37656 -124.17562,20.36653 -43.41882,9.5609 -86.56662,20.2923 -129.59154,31.48746 -46.51487,12.30534 -92.74929,25.65636 -138.83897,39.46521 -43.74021,13.40361 -87.22163,27.62029 -130.08724,43.63274 -37.55161,14.38857 -75.18536,28.64315 -111.92302,45.03465 -32.5923,15.02982 -64.59677,31.43036 -93.73307,52.57619 -25.62404,18.4704 -50.88103,37.46646 -75.26714,57.55375 -24.08071,20.49658 -47.5936,41.65115 -69.09065,64.89365 -24.00164,25.0393 -47.60818,50.45152 -69.34589,77.5124 -23.04342,27.87858 -44.97333,56.66248 -65.632791,86.35758 -21.389637,30.88873 -42.146171,62.22123 -64.175545,92.66233 -24.4015344,32.2697 -50.556746,63.1317 -79.311655,91.6436 -33.03946,33.4978 -66.044959,67.1675 -102.481639,97.0386 -16.43471,13.329 -21.87317,18.0935 -39.04426,30.5894 -28.42077,20.6825 -58.58856,38.8361 -89.72912,55.1092 -48.28567,24.533 -97.26949,47.5642 -147.25811,68.4419 -32.83886,14.8522 -65.44115,30.2083 -97.15542,47.3623 -10.15223,5.1879 -20.23044,10.9767 -31.1686,14.3437 0,0 -8.4986,-1.115 -8.4986,-1.115 z"
       inkscape:connector-curvature="0" />
    <path
       style="fill:#000080;fill-opacity:1;stroke:#000000;stroke-width:10;stroke-linecap:round;stroke-linejoin:round;stroke-miterlimit:4;stroke-opacity:1;stroke-dasharray:5, 5;stroke-dashoffset:0"
       id="path3983"
       d="m -443.878,370.503 c 2.03106,-8.69093 2.55701,-17.56777 2.75158,-26.45622 0.29929,-10.62311 -1.57729,-20.99458 -4.1734,-31.23398 -2.74899,-9.93372 -7.38357,-19.10961 -12.67454,-27.89703 -5.6181,-9.0224 -12.37078,-17.27484 -19.91083,-24.74607 -7.40388,-7.32333 -16.70244,-11.77176 -26.35018,-15.31408 -15.52572,-5.58329 -31.89388,-7.78695 -48.1806,-9.80017 -18.42933,-1.66912 -37.09334,-4.45505 -55.65043,-3.21959 -19.25384,0.39035 -38.39756,2.72757 -57.38031,5.83971 -14.25269,2.36052 -28.19614,6.10669 -41.72657,11.13518 -10.16628,3.683 -19.21091,9.46168 -27.40457,16.42809 -7.41712,6.32105 -11.64243,14.10587 -14.04831,23.39355 -2.50637,11.86407 -0.28006,23.68297 3.073,35.11347 6.70452,17.51033 19.85455,31.29537 32.55179,44.66673 18.93806,19.78511 39.91417,37.3048 62.17992,53.18472 23.76881,17.29352 50.2399,29.86314 77.60296,40.25383 22.80575,8.47421 46.50196,14.02282 70.69868,16.31677 17.51475,1.16388 34.74133,-3.3491 51.13654,-9.24373 20.4053,-8.36678 37.86708,-21.84774 54.06809,-36.53995 12.55101,-11.22775 21.74968,-25.02689 28.98036,-40.09271 5.06918,-10.94369 8.37879,-22.5426 10.46705,-34.39042 0.71669,-6.12726 0.47013,-3.10482 0.76008,-9.06564 0,0 8.57133,0.0414 8.57133,0.0414 l 0,0 c -0.2904,6.03521 -0.0432,2.97695 -0.76127,9.17318 -2.0856,11.92423 -5.39815,23.60091 -10.47428,34.62358 -7.22485,15.17029 -16.41372,29.09594 -29.00155,40.42355 -16.2094,14.78474 -33.6905,28.35467 -54.10236,36.87226 -3.50126,1.28345 -6.94943,2.72221 -10.50378,3.85034 -18.59756,5.90277 -38.27035,6.6531 -57.61871,5.60688 -24.20926,-2.41125 -47.91722,-8.01527 -70.72928,-16.54377 -27.3756,-10.47216 -53.84784,-23.12568 -77.62662,-40.47231 -22.26458,-15.94586 -43.25123,-33.51592 -62.19394,-53.34846 -12.75424,-13.48536 -25.93372,-27.3984 -32.57298,-45.07291 -3.36423,-11.58568 -5.58453,-23.55589 -3.07376,-35.57216 2.40227,-9.4459 6.58738,-17.43204 14.07743,-23.916 8.17754,-7.07635 17.23318,-12.96724 27.43567,-16.72697 13.52573,-5.10611 27.47852,-8.90393 41.74838,-11.30073 18.98614,-3.15527 38.13681,-5.52702 57.39933,-5.96711 24.2575,-0.18052 48.52377,-0.15757 72.59999,3.31341 16.30617,2.04945 32.68756,4.32379 48.20707,9.99797 9.68535,3.66526 18.98527,8.2429 26.38675,15.67848 7.53079,7.56163 14.31131,15.86147 19.92483,24.95682 5.30004,8.87183 9.93987,18.13272 12.68442,28.1475 2.60385,10.31567 4.47033,20.76772 4.17601,31.46506 -0.19514,8.94679 -0.72167,17.88151 -2.75376,26.63188 0,0 -8.56923,-0.19438 -8.56923,-0.19438 z"
       inkscape:connector-curvature="0" />
    <path
       style="fill:#000080;fill-opacity:1;stroke:#000000;stroke-width:10;stroke-linecap:round;stroke-linejoin:round;stroke-miterlimit:4;stroke-opacity:1;stroke-dasharray:5, 5;stroke-dashoffset:0"
       id="path3985"
       d="m 39.637321,-358.65 c 8.734272,7.84618 14.802833,18.27254 21.091241,28.06609 10.275864,16.3953 18.670442,33.91422 29.64817,49.86244 3.49366,4.08936 10.002508,10.58748 16.413248,7.48815 0.81572,-0.39437 -1.57676,-1.90289 -0.94221,-2.54964 2.38667,-2.43259 5.92811,-3.38615 8.70464,-5.36215 3.50319,-2.49314 6.7344,-5.3479 10.1016,-8.02185 27.52747,-25.30376 51.74051,-53.9933 75.92358,-82.44232 0,0 8.55017,0.60325 8.55017,0.60325 l 0,0 c -24.20361,28.48992 -48.4525,57.19438 -75.93677,82.60683 -2.86412,2.30005 -14.38384,12.16136 -18.83642,13.66679 -5.14072,1.73808 -10.64001,2.22103 -16.033041,2.82375 -7.453907,0.83305 -12.092213,-2.72374 -16.500754,-8.29804 -10.919892,-15.99518 -19.363597,-33.48938 -29.64965,-49.88767 -6.251028,-9.70787 -12.267631,-20.11081 -21.068408,-27.76195 0,0 8.534604,-0.79368 8.534604,-0.79368 z"
       inkscape:connector-curvature="0" />
    <path
       style="fill:#000080;fill-opacity:1;stroke:#000000;stroke-width:10;stroke-linecap:round;stroke-linejoin:round;stroke-miterlimit:4;stroke-opacity:1;stroke-dasharray:5, 5;stroke-dashoffset:0"
       id="path3987"
       d="m 1212.5852,176.6593 c -1.0507,6.9106 -2.6082,13.71454 -4.2847,20.49492 -1.8784,7.85418 -3.9383,15.65964 -5.661,23.55087 -1.3493,7.01698 -3.0477,13.95952 -5.0822,20.80795 -2.0171,6.33409 -3.941,12.71776 -6.4181,18.89072 -2.1233,5.4489 -4.9031,10.58586 -7.8641,15.61386 -2.1238,4.41467 -5.4992,7.92572 -8.8224,11.43946 0,0 -8.5468,-0.64921 -8.5468,-0.64921 l 0,0 c 3.2879,-3.46813 6.7301,-6.86413 8.81,-11.24648 2.9442,-4.99271 5.7514,-10.07046 7.8582,-15.48664 2.4964,-6.13781 4.3924,-12.50507 6.4154,-18.81005 2.0421,-6.82427 3.7367,-13.747 5.0806,-20.74355 1.7194,-7.90012 3.7797,-15.71334 5.6615,-23.5748 1.6754,-6.76747 3.2453,-13.55622 4.2839,-20.45624 0,0 8.5697,0.16919 8.5697,0.16919 z"
       inkscape:connector-curvature="0" />
    <path
       style="fill:#000080;fill-opacity:1;stroke:#000000;stroke-width:10;stroke-linecap:round;stroke-linejoin:round;stroke-miterlimit:4;stroke-opacity:1;stroke-dasharray:5, 5;stroke-dashoffset:0"
       id="path3989"
       d="m -141.02291,817.0264 c 2.03315,16.32815 2.34589,32.84876 3.45948,49.26824 2.20628,35.19856 7.7538,69.41647 15.74221,103.73364 9.79453,37.61222 23.635024,74.18692 42.698181,108.11472 3.966174,7.0588 8.347968,13.876 12.521952,20.8139 17.452152,27.1168 38.027558,52.2198 61.4941042,74.3638 14.2616964,13.458 20.6337608,17.9222 35.9881438,30.0122 34.67865,26.1315 73.598579,45.2889 113.580559,61.7358 24.31704,9.2489 49.35933,16.7366 74.94813,21.5422 17.31498,3.2518 23.41931,3.6361 40.9829,5.6596 34.97757,3.0916 70.09355,2.9622 105.16451,2.4815 18.90744,-0.3302 9.65539,-0.1587 27.75619,-0.5122 0,0 8.46851,1.3243 8.46851,1.3243 l 0,0 c -18.10124,0.3559 -8.84894,0.1827 -27.75695,0.517 -40.71201,0.572 -81.50513,0.9222 -122.1131,-2.5677 -17.61444,-2.0617 -23.63256,-2.445 -40.99459,-5.7422 -25.59859,-4.8613 -50.64804,-12.3939 -74.96744,-21.6935 -40.000507,-16.5205 -78.933614,-35.7551 -113.605222,-61.9718 -15.4072917,-12.1691 -21.68838482,-16.5737 -35.996963,-30.1167 -23.473681,-22.2176 -44.053847,-47.3862 -61.507665,-74.5687 -4.174854,-6.9549 -8.557552,-13.7893 -12.524561,-20.8649 -19.064779,-34.0041 -32.908869,-70.6502 -42.705879,-108.33147 -7.9716,-34.30617 -13.54724,-68.68405 -15.74425,-103.87146 -1.11014,-16.37832 -1.41612,-32.85998 -3.45777,-49.14535 0,0 8.56952,-0.18092 8.56952,-0.18092 z"
       inkscape:connector-curvature="0" />
    <path
       style="fill:#000080;fill-opacity:1;stroke:#000000;stroke-width:10;stroke-linecap:round;stroke-linejoin:round;stroke-miterlimit:4;stroke-opacity:1;stroke-dasharray:5, 5;stroke-dashoffset:0"
       id="path3991"
       d="m 348.58101,1243.1203 c 12.48353,1.3432 24.11867,6.6989 35.52178,11.6197 19.35784,8.6741 38.81986,17.1181 57.9247,26.3423 4.69773,2.9317 23.6568,10.0425 23.06364,17.3021 -0.12127,1.4841 -1.24397,2.7058 -1.86596,4.0587 -1.78933,1.4303 -3.42909,3.0709 -5.368,4.2907 -5.94999,3.7432 -15.98447,7.9599 -22.07901,10.4426 -19.08622,7.7751 -38.65925,13.8895 -58.3099,20.044 -44.21177,13.3347 -88.90705,24.9653 -133.41003,37.2707 -5.6047,1.5172 -11.20939,3.0345 -16.81409,4.5518 0,0 -8.49837,-1.1167 -8.49837,-1.1167 l 0,0 c 5.60449,-1.5157 11.20898,-3.0314 16.81347,-4.5471 44.49792,-12.31 89.18995,-23.9366 133.40638,-37.2424 19.64515,-6.1344 39.20391,-12.2362 58.29912,-19.9559 6.36559,-2.5734 15.84629,-6.5428 22.05707,-10.2324 1.89596,-1.1264 3.56081,-2.6027 5.34122,-3.9041 0.62061,-1.1209 1.73635,-2.0876 1.86182,-3.3627 0.62928,-6.3949 -18.84764,-14.0591 -23.01491,-16.6398 -19.11315,-9.1914 -38.55992,-17.6533 -57.92048,-26.3056 -11.35833,-4.8612 -23.00313,-10.253 -35.47435,-11.275 0,0 8.4659,-1.3409 8.4659,-1.3409 z"
       inkscape:connector-curvature="0" />
  </g>
</svg>
