<?xml version="1.0" encoding="UTF-8" standalone="no"?>
<!-- Created with Inkscape (http://www.inkscape.org/) -->

<svg
   xmlns:dc="http://purl.org/dc/elements/1.1/"
   xmlns:cc="http://creativecommons.org/ns#"
   xmlns:rdf="http://www.w3.org/1999/02/22-rdf-syntax-ns#"
   xmlns:svg="http://www.w3.org/2000/svg"
   xmlns="http://www.w3.org/2000/svg"
   xmlns:sodipodi="http://sodipodi.sourceforge.net/DTD/sodipodi-0.dtd"
   xmlns:inkscape="http://www.inkscape.org/namespaces/inkscape"
   width="210mm"
   height="297mm"
   viewBox="0 0 744.09448819 1052.3622047"
   id="svg4891"
   version="1.1"
   inkscape:version="0.91 r13725"
   sodipodi:docname="hp-catalysis-b.svg">
  <defs
     id="defs4893">
    <marker
       style="overflow:visible"
       id="Arrow2Mende"
       refX="0"
       refY="0"
       orient="auto"
       inkscape:stockid="Arrow2Mende">
      <path
         inkscape:connector-curvature="0"
         transform="scale(-0.6,-0.6)"
         d="M 8.7185878,4.0337352 -2.2072895,0.01601326 8.7185884,-4.0017078 c -1.7454984,2.3720609 -1.7354408,5.6174519 -6e-7,8.035443 z"
         style="fill:#ff0000;fill-rule:evenodd;stroke:#ff0000;stroke-width:0.625;stroke-linejoin:round"
         id="path12694" />
    </marker>
  </defs>
  <sodipodi:namedview
     id="base"
     pagecolor="#ffffff"
     bordercolor="#666666"
     borderopacity="1.0"
     inkscape:pageopacity="0.0"
     inkscape:pageshadow="2"
     inkscape:zoom="0.98994949"
     inkscape:cx="409.09357"
     inkscape:cy="600.8122"
     inkscape:document-units="px"
     inkscape:current-layer="layer1"
     showgrid="false"
     inkscape:window-width="1842"
     inkscape:window-height="1025"
     inkscape:window-x="76"
     inkscape:window-y="32"
     inkscape:window-maximized="1" />
  <metadata
     id="metadata4896">
    <rdf:RDF>
      <cc:Work
         rdf:about="">
        <dc:format>image/svg+xml</dc:format>
        <dc:type
           rdf:resource="http://purl.org/dc/dcmitype/StillImage" />
        <dc:title></dc:title>
      </cc:Work>
    </rdf:RDF>
  </metadata>
  <g
     inkscape:label="Layer 1"
     inkscape:groupmode="layer"
     id="layer1">
    <g
       id="g16638"
       transform="matrix(1.1002027,0,0,1.1002027,-1046.6223,-330.80354)">
      <path
         style="opacity:0.8;fill:#000000;fill-opacity:1;stroke:none"
         id="path12285"
         d="m 1060.833,723.86976 c 0.2464,0.0541 0.4982,0.0791 0.7477,0.11478 0.5751,0.10981 1.1569,0.17355 1.7385,0.23622 0.7663,0.0774 1.5331,0.1461 2.2987,0.2304 0.8525,0.0967 1.706,0.1845 2.56,0.26774 0.9339,0.0734 1.8696,0.12201 2.805,0.17172 1.0728,0.0489 2.1437,0.12685 3.2163,0.17938 1.0403,0.0539 2.0805,0.007 3.1197,-0.0442 1.1819,-0.0427 2.3598,-0.14495 3.5374,-0.25023 1.1957,-0.10922 2.39,-0.23668 3.58,-0.39788 1.2629,-0.17134 2.5214,-0.37863 3.7699,-0.63466 1.3012,-0.29051 2.5752,-0.68677 3.8469,-1.08376 1.3707,-0.42849 2.7184,-0.92437 4.0546,-1.44962 1.3432,-0.53692 2.658,-1.14096 3.948,-1.79477 1.3221,-0.6767 2.5943,-1.44405 3.8356,-2.25803 1.3031,-0.86766 2.5312,-1.84039 3.745,-2.82708 1.2863,-1.06079 2.5283,-2.17337 3.7478,-3.30993 1.2965,-1.1903 2.516,-2.4595 3.737,-3.72596 1.2537,-1.32872 2.4394,-2.71975 3.6127,-4.11938 1.2115,-1.45574 2.3454,-2.97242 3.4438,-4.51449 1.1674,-1.66335 2.2897,-3.35792 3.3994,-5.06019 1.1142,-1.73211 2.2274,-3.46476 3.3151,-5.21366 1.0765,-1.73212 2.0917,-3.50094 3.1217,-5.26078 1.0504,-1.79098 2.0277,-3.6234 2.9936,-5.46089 0.9807,-1.90551 1.9597,-3.81194 2.9282,-5.72364 0.9556,-1.91023 1.8899,-3.83108 2.823,-5.75232 0.9502,-1.98579 1.8841,-3.97918 2.7825,-5.98894 0.9164,-2.06981 1.8147,-4.14748 2.6921,-6.23409 0.8715,-2.10073 1.7521,-4.19768 2.6316,-6.29504 0.8953,-2.11332 1.7791,-4.23144 2.6732,-6.3453 0.8791,-2.12865 1.7662,-4.25401 2.6458,-6.38245 0.8871,-2.14284 1.8002,-4.27472 2.6982,-6.41297 0.9052,-2.14609 1.8385,-4.28049 2.7887,-6.40704 0.9542,-2.11684 1.9379,-4.2201 2.9099,-6.32879 0.973,-2.13868 1.9607,-4.27062 2.9437,-6.40476 0.9798,-2.16581 1.9878,-4.31867 2.9775,-6.47995 1.0133,-2.23611 2.0927,-4.44117 3.1925,-6.63572 1.1039,-2.19088 2.2325,-4.36903 3.3637,-6.54589 1.1518,-2.23784 2.3565,-4.44731 3.6145,-6.62708 1.2355,-2.13951 2.6229,-4.18449 4.0709,-6.18436 1.3959,-1.90685 2.9123,-3.71974 4.4867,-5.48047 1.6038,-1.79607 3.468,-3.3234 5.3452,-4.82 1.7646,-1.4074 3.6107,-2.70743 5.4809,-3.96943 1.8766,-1.26624 3.8413,-2.38871 5.8382,-3.45166 1.9911,-1.06752 4.0376,-2.02293 6.1003,-2.9422 2.0623,-0.93231 4.1784,-1.736 6.3085,-2.49756 2.1506,-0.76161 4.3494,-1.37345 6.5527,-1.96034 2.1634,-0.57711 4.3591,-1.0181 6.5604,-1.42226 2.2312,-0.41748 4.4952,-0.57681 6.7592,-0.67319 2.2824,-0.0864 4.564,0.0454 6.8335,0.28018 2.3641,0.26194 4.6897,0.76571 6.9951,1.33837 2.3881,0.60443 4.7166,1.40952 7.0231,2.26823 2.2569,0.85044 4.4789,1.7897 6.6786,2.77756 2.1983,1.00043 4.3298,2.13753 6.4519,3.28833 2.1208,1.16121 4.1906,2.40992 6.226,3.71427 2.1015,1.35884 4.1036,2.8615 6.071,4.40576 1.9572,1.56132 3.8716,3.17537 5.7753,4.80127 1.8738,1.61181 3.7057,3.27186 5.5164,4.954 1.8888,1.75137 3.6947,3.58732 5.4646,5.45773 1.884,1.98175 3.6763,4.0461 5.4205,6.15092 1.7683,2.15946 3.4613,4.37877 5.1325,6.61369 1.6125,2.16325 3.1663,4.36919 4.7126,6.57999 1.5001,2.15459 2.9626,4.33497 4.4192,6.51915 1.5249,2.2453 2.9399,4.5611 4.3116,6.90216 1.43,2.44685 2.7856,4.93619 4.1269,7.43243 1.3861,2.5773 2.7275,5.17822 4.0698,7.77848 1.4043,2.70082 2.7845,5.41369 4.1389,8.13981 1.3641,2.72614 2.7541,5.43911 4.1696,8.13893 1.4448,2.73463 2.9131,5.45678 4.3741,8.18276 1.4887,2.76324 2.9652,5.53301 4.4686,8.28827 1.509,2.75003 3.0935,5.4571 4.7032,8.14903 1.5993,2.67739 3.2553,5.32004 4.9481,7.93911 1.6584,2.54199 3.3283,5.07633 5.0346,7.5864 1.7008,2.51235 3.4583,4.98566 5.2135,7.46012 1.7265,2.44515 3.5029,4.85424 5.29,7.25524 1.766,2.34315 3.6104,4.62585 5.4366,6.92199 1.7873,2.24515 3.6176,4.45549 5.4665,6.65007 1.7961,2.12937 3.6466,4.2116 5.5028,6.2884 1.8809,2.09373 3.811,4.14128 5.7832,6.14889 2.0884,2.11928 4.251,4.16302 6.3985,6.22169 2.1829,2.09715 4.4161,4.14108 6.6526,6.18063 2.1735,2.01731 4.412,3.96111 6.6726,5.87961 2.2457,1.91903 4.5407,3.77881 6.8602,5.6075 2.3393,1.83505 4.683,3.66451 7.041,5.47546 2.3172,1.76938 4.6729,3.48757 7.0171,5.22097 2.2966,1.73581 4.6502,3.39258 7.0338,5.00605 2.4459,1.6511 4.9517,3.20987 7.4757,4.7378 2.5338,1.52127 5.1104,2.96905 7.6769,4.43394 2.4998,1.45364 5.0791,2.76128 7.6692,4.04435 2.5642,1.26349 5.1822,2.41237 7.8118,3.53173 2.6625,1.11932 5.3462,2.18745 8.0383,3.23313 2.6513,1.02459 5.3174,2.01023 7.9917,2.97303 2.6413,0.9417 5.3208,1.77001 8.0205,2.52632 2.8871,0.79803 5.8157,1.43182 8.7422,2.06549 3.0106,0.66789 6.0422,1.23043 9.0789,1.76431 3.1345,0.55952 6.2886,0.99655 9.4453,1.40882 3.1845,0.40969 6.3719,0.796 9.5598,1.17782 3.1029,0.37104 6.2074,0.72912 9.313,1.07657 3.0743,0.35191 6.1615,0.56646 9.248,0.77708 3.0553,0.20736 6.1131,0.37954 9.1728,0.50724 3.0585,0.11453 6.1193,0.14159 9.1796,0.12378 3.0804,-0.0306 6.1608,-0.064 9.2405,-0.14226 3.0198,-0.0777 6.0386,-0.18759 9.0571,-0.30484 1.9599,-0.0656 3.9182,-0.16746 5.8756,-0.28305 4.9914,-0.29434 5.4076,6.76446 0.4163,7.0588 l 0,0 c -2.0047,0.11807 -4.0102,0.22268 -6.0174,0.28999 -3.0503,0.11848 -6.1009,0.22933 -9.1525,0.3079 -3.1258,0.079 -6.2524,0.1138 -9.3791,0.14441 -3.1723,0.0179 -6.3451,-0.0101 -9.5155,-0.12983 -3.1218,-0.13074 -6.2416,-0.3056 -9.3589,-0.51748 -3.1883,-0.21763 -6.377,-0.44097 -9.5527,-0.80452 -3.1239,-0.34951 -6.2466,-0.70967 -9.3677,-1.0829 -3.2129,-0.38483 -6.4254,-0.77421 -9.6348,-1.18721 -3.2599,-0.42595 -6.517,-0.87843 -9.7541,-1.45611 -3.1276,-0.55011 -6.2499,-1.13023 -9.3508,-1.81764 -3.065,-0.66381 -6.1318,-1.33015 -9.1551,-2.16801 -2.863,-0.80382 -5.7054,-1.68136 -8.5065,-2.68173 -2.7294,-0.98287 -5.4506,-1.98876 -8.1566,-3.03475 -2.7624,-1.07321 -5.5161,-2.16927 -8.248,-3.31846 -2.754,-1.17285 -5.4956,-2.37737 -8.1809,-3.7016 -2.7138,-1.34479 -5.4155,-2.71703 -8.0353,-4.23928 -2.6192,-1.49499 -5.2485,-2.9728 -7.8338,-4.5262 -2.6262,-1.59021 -5.2331,-3.21295 -7.7779,-4.9314 -2.4643,-1.66889 -4.8985,-3.38142 -7.2736,-5.17581 -2.3787,-1.75897 -4.7691,-3.50259 -7.1201,-5.29861 -2.3817,-1.8294 -4.7493,-3.67696 -7.112,-5.53072 -2.386,-1.8816 -4.7472,-3.79478 -7.0575,-5.76893 -2.3246,-1.97298 -4.6262,-3.97227 -6.8619,-6.04611 -2.2797,-2.07915 -4.556,-4.16292 -6.781,-6.30079 -2.1988,-2.10781 -4.4125,-4.20086 -6.5501,-6.37137 -2.0495,-2.0871 -4.0559,-4.21495 -6.0105,-6.39149 -1.9022,-2.12834 -3.7981,-4.26264 -5.6386,-6.44495 -1.8915,-2.24549 -3.7642,-4.50697 -5.5927,-6.80418 -1.8733,-2.35527 -3.7648,-4.69697 -5.5748,-7.10161 -1.8193,-2.44433 -3.6275,-4.89703 -5.3852,-7.38621 -1.7823,-2.5128 -3.5668,-5.02463 -5.2939,-7.57591 -1.737,-2.55556 -3.4375,-5.13544 -5.1256,-7.7236 -1.737,-2.68823 -3.4369,-5.40027 -5.0781,-8.14823 -1.6573,-2.77183 -3.2882,-5.55946 -4.8416,-8.39121 -1.5116,-2.77078 -2.9969,-5.55579 -4.4936,-8.33459 -1.4712,-2.74497 -2.9498,-5.48605 -4.4044,-8.23984 -1.4393,-2.74534 -2.8527,-5.50399 -4.2397,-8.27614 -1.3381,-2.6935 -2.7019,-5.37378 -4.0894,-8.04223 -1.3245,-2.56579 -2.6479,-5.13234 -4.0156,-7.6755 -1.3,-2.41981 -2.6136,-4.83304 -3.9993,-7.20509 -1.3016,-2.22294 -2.6446,-4.42178 -4.0931,-6.55294 -1.4277,-2.14074 -2.8608,-4.27794 -4.3309,-6.38982 -1.5033,-2.1496 -3.0137,-4.29469 -4.5811,-6.39825 -1.6007,-2.14114 -3.222,-4.26759 -4.9148,-6.33715 -1.6444,-1.98601 -3.3349,-3.93307 -5.1119,-5.80236 -1.665,-1.76066 -3.3638,-3.48899 -5.1412,-5.13723 -1.738,-1.61553 -3.4972,-3.20893 -5.2955,-4.75718 -1.8298,-1.5631 -3.6699,-3.11481 -5.5503,-4.61689 -1.7895,-1.40623 -3.6096,-2.7759 -5.5206,-4.01447 -1.8893,-1.21238 -3.8116,-2.37139 -5.7803,-3.45099 -1.9674,-1.06731 -3.9423,-2.12444 -5.9794,-3.05444 -2.0578,-0.92588 -4.1377,-1.80366 -6.249,-2.60116 -2.0572,-0.7675 -4.1331,-1.49046 -6.2629,-2.03272 -1.9852,-0.49603 -3.9874,-0.93586 -6.0232,-1.16726 -1.9254,-0.20512 -3.8622,-0.31524 -5.7992,-0.24789 -1.936,0.0803 -3.8729,0.20712 -5.7811,0.56351 -2.0186,0.36954 -4.0324,0.77185 -6.0164,1.30015 -2.0147,0.53616 -4.0263,1.09197 -5.9934,1.78637 -1.9618,0.69997 -3.9107,1.43888 -5.8095,2.2976 -1.9129,0.85184 -3.8113,1.7358 -5.6574,2.7261 -1.7802,0.94595 -3.5325,1.94338 -5.2053,3.07135 -1.7157,1.15604 -3.4092,2.34736 -5.0279,3.63709 -1.5684,1.24876 -3.1388,2.50986 -4.4829,4.00576 -1.4145,1.57829 -2.7751,3.205 -4.03,4.91421 -1.3068,1.80075 -2.5579,3.64316 -3.6726,5.57033 -1.2067,2.08853 -2.3593,4.20718 -3.4636,6.35172 -1.1153,2.14629 -2.2282,4.29378 -3.3167,6.45383 -1.0629,2.12033 -2.1062,4.25077 -3.085,6.41147 -0.9919,2.16593 -2.0019,4.32354 -2.984,6.49399 -0.9833,2.13473 -1.9711,4.26734 -2.9445,6.40661 -0.9605,2.08378 -1.9326,4.16222 -2.8759,6.25389 -0.9287,2.07762 -1.8402,4.16323 -2.7249,6.25995 -0.8929,2.12586 -1.8006,4.24546 -2.6828,6.37581 -0.887,2.14629 -1.7814,4.28958 -2.6682,6.43598 -0.8912,2.10725 -1.7723,4.21875 -2.6648,6.32546 -0.8805,2.09958 -1.7619,4.19878 -2.6344,6.30171 -0.898,2.13517 -1.817,4.26131 -2.7551,6.37923 -0.9293,2.07775 -1.894,4.13924 -2.8772,6.19207 -0.9506,1.95679 -1.902,3.91333 -2.8757,5.8587 -0.9847,1.94338 -1.9798,3.88159 -2.9772,5.81846 -1.016,1.93216 -2.0447,3.85856 -3.1496,5.74179 -1.0621,1.81468 -2.1095,3.6383 -3.2201,5.42401 -1.1145,1.79134 -2.2542,3.56655 -3.396,5.34055 -1.1633,1.78409 -2.3399,3.56011 -3.5647,5.30269 -1.207,1.69226 -2.4527,3.35688 -3.784,4.95411 -1.2788,1.52412 -2.5712,3.03876 -3.9401,4.48335 -1.3089,1.35757 -2.6185,2.7158 -4.0079,3.99221 -1.3369,1.24473 -2.6982,2.4637 -4.1092,3.62443 -1.4031,1.1389 -2.825,2.25842 -4.3332,3.25656 -1.4625,0.95418 -2.9585,1.85794 -4.5157,2.65064 -1.4887,0.75085 -3.0034,1.44995 -4.5534,2.06591 -1.494,0.58609 -3.0009,1.13976 -4.5334,1.61807 -1.5005,0.46776 -3.0051,0.93027 -4.5426,1.26257 -1.4035,0.28383 -2.816,0.52331 -4.2354,0.71329 -1.2948,0.17378 -2.5938,0.31556 -3.895,0.43316 -1.2726,0.11373 -2.5456,0.22219 -3.8227,0.26994 -1.2693,0.0617 -2.5402,0.11032 -3.8107,0.0441 -1.0821,-0.0533 -2.1626,-0.1309 -3.2449,-0.18084 -1.0392,-0.0553 -2.0787,-0.10899 -3.1158,-0.19513 -0.8835,-0.0862 -1.7666,-0.17689 -2.6486,-0.27693 -0.7603,-0.0839 -1.5222,-0.15042 -2.2831,-0.22871 -0.6655,-0.072 -1.3318,-0.14416 -1.9901,-0.26796 -0.4862,-0.0712 -0.9754,-0.12865 -1.4519,-0.25328 -4.8507,-1.21268 -3.1357,-8.07262 1.715,-6.85995 z"
         inkscape:connector-curvature="0" />
      <path
         style="opacity:0.32042918;fill:#000000;fill-opacity:1;stroke:none"
         id="path12289"
         d="m 1086.0842,725.17481 c 0.5042,-0.15157 1.0226,-0.25193 1.5417,-0.34329 0.3803,-0.0794 0.7597,-0.16552 1.1335,-0.26978 0.6098,-0.1724 1.2244,-0.32903 1.8371,-0.4921 0.7148,-0.18703 1.4342,-0.35743 2.1483,-0.54739 0.736,-0.19802 1.4605,-0.42944 2.1767,-0.68416 0.8207,-0.29481 1.6183,-0.64219 2.4059,-1.00875 0.8955,-0.42044 1.7607,-0.89588 2.621,-1.37749 1.0022,-0.56594 1.9984,-1.14113 2.9858,-1.73022 1.0906,-0.65649 2.1521,-1.35574 3.2152,-2.05148 1.1758,-0.76231 2.3224,-1.56362 3.4714,-2.36174 1.2017,-0.82395 2.384,-1.67244 3.5497,-2.54174 1.2031,-0.90179 2.3838,-1.83024 3.5544,-2.76974 1.2201,-0.98327 2.4133,-1.99623 3.6073,-3.00785 1.2356,-1.07013 2.481,-2.12994 3.7147,-3.20192 1.2719,-1.1223 2.5706,-2.21656 3.8644,-3.31582 1.2789,-1.09224 2.5293,-2.21411 3.7724,-3.34297 1.2607,-1.14318 2.4804,-2.32574 3.6977,-3.51032 1.2327,-1.20917 2.4382,-2.44306 3.6387,-3.68105 1.2485,-1.28534 2.5044,-2.56409 3.7542,-3.8483 1.2444,-1.29132 2.4285,-2.63359 3.6195,-3.96923 1.2471,-1.40256 2.4752,-2.82022 3.7056,-4.23597 1.2824,-1.46994 2.5568,-2.9461 3.8388,-4.4163 1.3162,-1.51219 2.651,-3.00957 3.9762,-4.51463 1.3429,-1.52203 2.6789,-3.04948 4.014,-4.57769 1.3646,-1.53606 2.7246,-3.07566 4.068,-4.6285 1.354,-1.56745 2.7079,-3.13488 4.0475,-4.71346 1.3556,-1.61365 2.7288,-3.2136 4.1128,-4.80519 1.4085,-1.61687 2.8245,-3.2278 4.2661,-4.81805 1.4451,-1.5925 2.9276,-3.1537 4.4256,-4.70118 1.4851,-1.5343 3.0297,-3.01459 4.5981,-4.47145 1.5354,-1.42199 3.1214,-2.79285 4.7511,-4.11619 1.5754,-1.2603 3.2326,-2.4233 4.9012,-3.56825 1.6215,-1.11957 3.3041,-2.15396 5.0237,-3.13073 1.6502,-0.93775 3.3577,-1.77696 5.0736,-2.59911 1.7186,-0.83013 3.4593,-1.61774 5.2238,-2.35544 1.7715,-0.74239 3.5859,-1.38379 5.4139,-1.98705 1.8114,-0.59184 3.6654,-1.05409 5.5251,-1.48495 1.8187,-0.42227 3.6648,-0.71793 5.518,-0.9623 1.7949,-0.23342 3.603,-0.34203 5.4123,-0.4016 1.8302,-0.0455 3.6587,0.0735 5.4781,0.25193 1.8479,0.18689 3.6553,0.59635 5.4347,1.09328 1.7354,0.50195 3.4102,1.16628 5.0627,1.87254 1.6098,0.70329 3.1577,1.52362 4.6893,2.36767 1.4814,0.82104 2.9168,1.71299 4.3367,2.6259 1.4581,0.92932 2.8794,1.90733 4.268,2.92797 1.4357,1.06773 2.8495,2.16165 4.2523,3.26813 1.4278,1.13293 2.8272,2.29734 4.2209,3.46784 1.4381,1.21526 2.8313,2.4777 4.2084,3.75491 1.4039,1.31656 2.7839,2.65557 4.1403,4.01633 1.4024,1.43574 2.7761,2.89642 4.1288,4.3746 1.3792,1.51629 2.7619,3.02942 4.1162,4.56588 1.6199,1.67306 2.9566,3.53886 4.1991,5.47439 1.2835,2.07469 2.5629,4.15178 3.835,6.2328 1.2869,2.10603 2.5657,4.2165 3.8389,6.32996 1.2199,2.0486 2.4911,4.06851 3.7892,6.07293 1.2692,1.94792 2.5792,3.87117 3.9425,5.76069 1.3732,1.8918 2.7999,3.74749 4.2316,5.59936 1.4243,1.85086 2.8955,3.66828 4.3751,5.47919 1.447,1.77589 2.9461,3.51184 4.4641,5.23291 1.5013,1.707 3.0447,3.37974 4.5928,5.04829 1.5451,1.65905 3.1179,3.29435 4.6962,4.92482 1.5717,1.61638 3.1689,3.2101 4.7768,4.79379 1.6167,1.58451 3.2342,3.16839 4.8739,4.73138 1.6326,1.55389 3.2832,3.09063 4.9435,4.6177 1.6726,1.52682 3.3318,3.06668 5.011,4.58692 1.6937,1.55797 3.4248,3.07839 5.163,4.59113 1.7423,1.52645 3.5136,3.02223 5.2865,4.51627 1.7607,1.48005 3.5357,2.9442 5.3221,4.39594 1.7581,1.44491 3.5565,2.84419 5.3526,4.24581 1.777,1.40847 3.5815,2.78434 5.4083,4.1338 1.793,1.33636 3.6262,2.62229 5.465,3.90068 1.8064,1.27043 3.6395,2.50564 5.4895,3.71779 1.7958,1.1745 3.6267,2.299 5.4705,3.40386 1.8055,1.07967 3.6421,2.1108 5.4899,3.12324 1.8151,0.9924 3.6574,1.93825 5.5095,2.86636 1.8242,0.91217 3.6722,1.77995 5.5285,2.63097 1.8328,0.8384 3.6863,1.63468 5.547,2.41518 1.8563,0.78852 3.7248,1.55059 5.601,2.29512 1.8475,0.73171 3.7111,1.42534 5.5804,2.10474 1.8543,0.6725 3.7227,1.30904 5.5958,1.93235 1.861,0.61791 3.7341,1.20218 5.6111,1.77413 1.8973,0.5666 3.7982,1.12153 5.6941,1.69225 1.8766,0.56813 3.7616,1.11075 5.6504,1.64088 1.8755,0.52528 3.7598,1.02131 5.647,1.50667 1.7579,0.46905 3.5328,0.8756 5.3128,1.26063 1.6888,0.39322 3.3944,0.71123 5.1012,1.02374 1.6314,0.31427 3.2749,0.56177 4.9234,0.77804 0.8435,0.10979 1.6851,0.23162 2.526,0.35785 4.7314,0.71148 3.6735,7.07557 -1.0579,6.3641 l 0,0 c -0.7972,-0.1201 -1.5951,-0.23505 -2.3948,-0.33938 -1.7669,-0.23233 -3.5285,-0.49777 -5.2774,-0.83364 -1.7813,-0.32617 -3.5611,-0.65917 -5.324,-1.06827 -1.8686,-0.40485 -3.732,-0.83141 -5.5777,-1.32333 -1.937,-0.49826 -3.871,-1.00751 -5.796,-1.54676 -1.9312,-0.54211 -3.8584,-1.09687 -5.7772,-1.67772 -1.9034,-0.57302 -3.8121,-1.12981 -5.7168,-1.69916 -1.9341,-0.58945 -3.864,-1.19161 -5.7815,-1.82843 -1.9338,-0.64362 -3.8626,-1.30094 -5.7769,-1.99538 -1.933,-0.70274 -3.8602,-1.42022 -5.7707,-2.17706 -1.9181,-0.76133 -3.8284,-1.54016 -5.7263,-2.34624 -1.9304,-0.80996 -3.8532,-1.63631 -5.7547,-2.50635 -1.929,-0.88459 -3.8494,-1.78662 -5.7449,-2.73478 -1.9273,-0.96611 -3.8446,-1.9507 -5.7334,-2.98373 -1.925,-1.05512 -3.8385,-2.12972 -5.7195,-3.25489 -1.9219,-1.15207 -3.8305,-2.32461 -5.7024,-3.54927 -1.9017,-1.24641 -3.7865,-2.51591 -5.6437,-3.82187 -1.8921,-1.31545 -3.7779,-2.63918 -5.6231,-4.014 -1.8741,-1.38487 -3.7261,-2.79597 -5.5495,-4.24101 -1.8309,-1.42881 -3.6638,-2.85562 -5.4562,-4.32837 -1.8172,-1.47683 -3.6229,-2.96629 -5.4139,-4.47193 -1.8001,-1.5169 -3.5983,-3.0358 -5.3674,-4.58548 -1.7708,-1.54137 -3.5346,-3.09046 -5.2604,-4.67762 -1.6921,-1.53199 -3.3642,-3.08346 -5.0496,-4.62216 -1.6892,-1.55387 -3.3687,-3.11741 -5.0298,-4.69856 -1.6657,-1.58803 -3.3093,-3.19663 -4.9515,-4.80656 -1.6451,-1.62055 -3.2794,-3.25119 -4.8873,-4.90527 -1.6105,-1.6638 -3.2153,-3.33267 -4.7919,-5.02574 -1.5855,-1.70892 -3.1658,-3.4224 -4.7035,-5.17066 -1.572,-1.78262 -3.1243,-3.58089 -4.623,-5.42013 -1.5165,-1.85607 -3.0239,-3.71902 -4.4838,-5.61592 -1.4756,-1.9088 -2.9457,-3.82183 -4.3606,-5.77206 -1.425,-1.97724 -2.7972,-3.98783 -4.1239,-6.02606 -1.3354,-2.06248 -2.6435,-4.14072 -3.8988,-6.24841 -1.2662,-2.10174 -2.5379,-4.20048 -3.8176,-6.29482 -1.2484,-2.04238 -2.5047,-4.08043 -3.7628,-6.11741 -1.064,-1.66295 -2.2028,-3.26219 -3.6066,-4.6893 -1.3272,-1.50621 -2.6834,-2.98864 -4.0348,-4.47517 -1.2894,-1.40957 -2.5993,-2.80197 -3.9352,-4.1719 -1.2951,-1.29992 -2.6135,-2.57832 -3.9537,-3.83629 -1.2966,-1.20323 -2.6086,-2.39241 -3.9623,-3.53763 -1.3412,-1.12651 -2.6877,-2.24748 -4.0615,-3.3381 -1.3436,-1.05994 -2.6977,-2.10784 -4.0724,-3.13107 -1.2737,-0.93801 -2.5796,-1.83373 -3.9179,-2.68696 -1.2902,-0.83008 -2.5937,-1.64213 -3.9396,-2.38913 -1.3311,-0.73438 -2.6746,-1.45129 -4.0722,-2.06646 -1.3726,-0.58867 -2.762,-1.14628 -4.2025,-1.56911 -1.3802,-0.39136 -2.7827,-0.71371 -4.2172,-0.86376 -1.509,-0.15173 -3.0263,-0.25188 -4.5448,-0.22092 -1.5766,0.0501 -3.1522,0.14303 -4.7163,0.34478 -1.6268,0.21261 -3.2473,0.47069 -4.8438,0.84037 -1.6512,0.38124 -3.2979,0.78895 -4.9067,1.3119 -1.6578,0.54627 -3.3036,1.12604 -4.9099,1.79908 -1.6558,0.69044 -3.287,1.4323 -4.8994,2.21012 -1.5726,0.75332 -3.139,1.51942 -4.6514,2.37864 -1.5522,0.87891 -3.0682,1.81366 -4.5309,2.82274 -1.5199,1.04224 -3.0307,2.09926 -4.4675,3.24447 -1.5155,1.22825 -2.9873,2.50396 -4.4149,3.82423 -1.4829,1.37672 -2.9432,2.77572 -4.3472,4.2258 -1.4484,1.49585 -2.8816,3.00515 -4.2788,4.54457 -1.4116,1.55653 -2.797,3.13414 -4.1762,4.71674 -1.3668,1.57177 -2.7229,3.15192 -4.0615,4.74554 -1.3531,1.59432 -2.7204,3.17765 -4.088,4.76073 -1.3504,1.56062 -2.7167,3.10853 -4.0886,4.65209 -1.3406,1.53457 -2.6822,3.06836 -4.0307,4.59674 -1.3183,1.49714 -2.646,2.98677 -3.9555,4.49096 -1.2797,1.46757 -2.5518,2.94109 -3.8318,4.40837 -1.2487,1.43661 -2.4949,2.87513 -3.7605,4.29829 -1.2544,1.40671 -2.5024,2.8196 -3.8144,4.17844 -1.2471,1.28143 -2.5003,2.55742 -3.7461,3.83996 -1.2449,1.28367 -2.4951,2.5629 -3.7737,3.81635 -1.272,1.23766 -2.5471,2.47252 -3.8643,3.66689 -1.2973,1.17793 -2.6025,2.34831 -3.9373,3.4878 -1.2752,1.08344 -2.5554,2.16178 -3.8088,3.26806 -1.2547,1.08991 -2.5207,2.16804 -3.7775,3.2558 -1.2395,1.05004 -2.4783,2.10116 -3.7451,3.12142 -1.233,0.98901 -2.4762,1.96686 -3.7434,2.91601 -1.2265,0.91407 -2.4695,1.80709 -3.7334,2.67391 -1.2004,0.83377 -2.3988,1.6701 -3.6271,2.46667 -1.1422,0.74742 -2.2833,1.49785 -3.4558,2.20193 -1.0418,0.62123 -2.0926,1.22838 -3.1501,1.82511 -1.0115,0.5656 -2.03,1.1217 -3.0837,1.61392 -0.9864,0.45718 -1.9857,0.88989 -3.0136,1.25678 -0.8957,0.31631 -1.8008,0.60629 -2.7208,0.85238 -0.7126,0.18862 -1.4293,0.36172 -2.1431,0.54598 -0.598,0.15918 -1.198,0.31199 -1.7933,0.48032 -0.5872,0.15849 -1.1798,0.30046 -1.7784,0.41383 -0.2324,0.0402 -0.4652,0.0806 -0.6931,0.14031 -4.5603,1.39417 -6.6333,-4.73989 -2.073,-6.13406 z"
         inkscape:connector-curvature="0" />
      <path
         style="fill:none;stroke:#ff0000;stroke-width:3;stroke-linecap:butt;stroke-linejoin:miter;stroke-miterlimit:4;stroke-dasharray:none;stroke-opacity:1;marker-end:url(#Arrow2Mende)"
         d="m 1241.4137,554.56176 0,60"
         id="path12291"
         inkscape:connector-curvature="0" />
      <path
         inkscape:connector-curvature="0"
         id="path13247"
         d="m 1055.0431,520.3181 0,300 560.0001,0"
         style="fill:none;stroke:#000000;stroke-width:1px;stroke-linecap:butt;stroke-linejoin:miter;stroke-opacity:1" />
      <text
         transform="matrix(0,-1,1,0,0,0)"
         sodipodi:linespacing="125%"
         id="text6726"
         y="1050.641"
         x="-747.99847"
         style="font-style:italic;font-weight:normal;font-size:22.42058754px;line-height:125%;font-family:Sans;-inkscape-font-specification:'Sans Italic';letter-spacing:0px;word-spacing:0px;fill:#000000;fill-opacity:1;stroke:none"
         xml:space="preserve"><tspan
           style="font-size:25px"
           y="1050.641"
           x="-747.99847"
           id="tspan6728"
           sodipodi:role="line">Gibbs free energy</tspan></text>
      <text
         sodipodi:linespacing="125%"
         id="text6730"
         y="839.71539"
         x="1170.7108"
         style="font-style:italic;font-weight:normal;font-size:22.584795px;line-height:125%;font-family:Sans;-inkscape-font-specification:'Sans Italic';letter-spacing:0px;word-spacing:0px;fill:#000000;fill-opacity:1;stroke:none"
         xml:space="preserve"><tspan
           style="font-size:25px"
           y="839.71539"
           x="1170.7108"
           id="tspan6732"
           sodipodi:role="line">Reaction coordinate</tspan></text>
      <text
         sodipodi:linespacing="125%"
         id="text3371"
         y="495.03806"
         x="1109.86"
         style="font-style:italic;font-weight:normal;font-size:24.48780441px;line-height:125%;font-family:Sans;-inkscape-font-specification:'Sans Italic';text-align:start;letter-spacing:0px;word-spacing:0px;text-anchor:start;fill:#000000;fill-opacity:1;stroke:none"
         xml:space="preserve"><tspan
           id="tspan4416"
           style="font-style:normal;font-size:27.5px;-inkscape-font-specification:Sans;text-align:start;text-anchor:start"
           y="495.03806"
           x="1109.86"
           sodipodi:role="line">3 − 4 hydrophobic interactions </tspan><tspan
           id="tspan4422"
           style="font-style:normal;font-size:27.5px;-inkscape-font-specification:Sans;text-align:start;text-anchor:start"
           y="529.41309"
           x="1109.86"
           sodipodi:role="line">for 100 times speedup @25C</tspan><tspan
           id="tspan4418"
           style="font-style:normal;font-size:27.5px;-inkscape-font-specification:Sans;text-align:start;text-anchor:start"
           y="563.78809"
           x="1109.86"
           sodipodi:role="line" /><tspan
           style="font-size:27.5px"
           id="tspan3377"
           y="598.16309"
           x="1109.86"
           sodipodi:role="line" /></text>
    </g>
  </g>
</svg>
