<?xml version="1.0" encoding="UTF-8" standalone="no"?>
<svg
   xmlns:dc="http://purl.org/dc/elements/1.1/"
   xmlns:cc="http://creativecommons.org/ns#"
   xmlns:rdf="http://www.w3.org/1999/02/22-rdf-syntax-ns#"
   xmlns:svg="http://www.w3.org/2000/svg"
   xmlns="http://www.w3.org/2000/svg"
   xmlns:sodipodi="http://sodipodi.sourceforge.net/DTD/sodipodi-0.dtd"
   xmlns:inkscape="http://www.inkscape.org/namespaces/inkscape"
   width="55cm"
   height="33cm"
   viewBox="48 106 1082 660"
   id="svg3663"
   version="1.1"
   inkscape:version="0.48.5 r10040"
   sodipodi:docname="info-func-porymers-newview.svg">
  <metadata
     id="metadata3981">
    <rdf:RDF>
      <cc:Work
         rdf:about="">
        <dc:format>image/svg+xml</dc:format>
        <dc:type
           rdf:resource="http://purl.org/dc/dcmitype/StillImage" />
        <dc:title />
      </cc:Work>
    </rdf:RDF>
  </metadata>
  <defs
     id="defs3979">
    <marker
       inkscape:stockid="EmptyTriangleOutM"
       orient="auto"
       refY="0.0"
       refX="0.0"
       id="marker6399"
       style="overflow:visible"
       inkscape:isstock="true">
      <path
         id="path6401"
         d="M 5.77,0.0 L -2.88,5.0 L -2.88,-5.0 L 5.77,0.0 z "
         style="fill-rule:evenodd;fill:#ffffff;stroke:#000000;stroke-width:1pt;stroke-opacity:1;fill-opacity:1"
         transform="scale(0.4) translate(-4.5,0)" />
    </marker>
    <marker
       inkscape:isstock="true"
       style="overflow:visible"
       id="marker6393"
       refX="0.0"
       refY="0.0"
       orient="auto"
       inkscape:stockid="EmptyTriangleOutM">
      <path
         transform="scale(0.4) translate(-4.5,0)"
         style="fill-rule:evenodd;fill:#ffffff;stroke:#000000;stroke-width:1pt;stroke-opacity:1;fill-opacity:1"
         d="M 5.77,0.0 L -2.88,5.0 L -2.88,-5.0 L 5.77,0.0 z "
         id="path6395" />
    </marker>
    <marker
       inkscape:stockid="TriangleOutM"
       orient="auto"
       refY="0.0"
       refX="0.0"
       id="marker6387"
       style="overflow:visible"
       inkscape:isstock="true">
      <path
         id="path6389"
         d="M 5.77,0.0 L -2.88,5.0 L -2.88,-5.0 L 5.77,0.0 z "
         style="fill-rule:evenodd;stroke:#970000;stroke-width:1pt;stroke-opacity:1;fill:#970000;fill-opacity:1"
         transform="scale(0.4)" />
    </marker>
    <marker
       inkscape:stockid="EmptyTriangleOutM"
       orient="auto"
       refY="0.0"
       refX="0.0"
       id="marker6383"
       style="overflow:visible"
       inkscape:isstock="true">
      <path
         id="path6385"
         d="M 5.77,0.0 L -2.88,5.0 L -2.88,-5.0 L 5.77,0.0 z "
         style="fill-rule:evenodd;fill:#ffffff;stroke:#000000;stroke-width:1pt;stroke-opacity:1"
         transform="scale(0.4) translate(-4.5,0)" />
    </marker>
    <marker
       inkscape:isstock="true"
       style="overflow:visible"
       id="marker5559"
       refX="0.0"
       refY="0.0"
       orient="auto"
       inkscape:stockid="TriangleOutM">
      <path
         transform="scale(0.4)"
         style="fill-rule:evenodd;stroke:#a30000;stroke-width:1pt;stroke-opacity:1;fill:#a30000;fill-opacity:1"
         d="M 5.77,0.0 L -2.88,5.0 L -2.88,-5.0 L 5.77,0.0 z "
         id="path5561" />
    </marker>
    <marker
       inkscape:isstock="true"
       style="overflow:visible"
       id="marker5553"
       refX="0.0"
       refY="0.0"
       orient="auto"
       inkscape:stockid="EmptyTriangleOutM"
       inkscape:collect="always">
      <path
         transform="scale(0.4) translate(-4.5,0)"
         style="fill-rule:evenodd;fill:#ffffff;stroke:#000000;stroke-width:1pt;stroke-opacity:1;fill-opacity:1"
         d="M 5.77,0.0 L -2.88,5.0 L -2.88,-5.0 L 5.77,0.0 z "
         id="path5555" />
    </marker>
    <marker
       inkscape:stockid="TriangleOutM"
       orient="auto"
       refY="0.0"
       refX="0.0"
       id="marker5547"
       style="overflow:visible"
       inkscape:isstock="true"
       inkscape:collect="always">
      <path
         id="path5549"
         d="M 5.77,0.0 L -2.88,5.0 L -2.88,-5.0 L 5.77,0.0 z "
         style="fill-rule:evenodd;stroke:#a30000;stroke-width:1pt;stroke-opacity:1;fill:#a30000;fill-opacity:1"
         transform="scale(0.4)" />
    </marker>
    <marker
       inkscape:isstock="true"
       style="overflow:visible"
       id="marker5493"
       refX="0.0"
       refY="0.0"
       orient="auto"
       inkscape:stockid="TriangleOutM"
       inkscape:collect="always">
      <path
         transform="scale(0.4)"
         style="fill-rule:evenodd;stroke:#a30000;stroke-width:1pt;stroke-opacity:1;fill:#a30000;fill-opacity:1"
         d="M 5.77,0.0 L -2.88,5.0 L -2.88,-5.0 L 5.77,0.0 z "
         id="path5495" />
    </marker>
    <marker
       inkscape:stockid="TriangleOutM"
       orient="auto"
       refY="0.0"
       refX="0.0"
       id="TriangleOutM"
       style="overflow:visible"
       inkscape:isstock="true"
       inkscape:collect="always">
      <path
         id="path5189"
         d="M 5.77,0.0 L -2.88,5.0 L -2.88,-5.0 L 5.77,0.0 z "
         style="fill-rule:evenodd;stroke:#a70000;stroke-width:1pt;stroke-opacity:1;fill:#a70000;fill-opacity:1"
         transform="scale(0.4)" />
    </marker>
    <marker
       inkscape:stockid="Arrow1Lend"
       orient="auto"
       refY="0.0"
       refX="0.0"
       id="Arrow1Lend"
       style="overflow:visible;"
       inkscape:isstock="true">
      <path
         id="path5047"
         d="M 0.0,0.0 L 5.0,-5.0 L -12.5,0.0 L 5.0,5.0 L 0.0,0.0 z "
         style="fill-rule:evenodd;stroke:#000000;stroke-width:1.0pt;"
         transform="scale(0.8) rotate(180) translate(12.5,0)" />
    </marker>
    <marker
       inkscape:isstock="true"
       style="overflow:visible"
       id="marker5481"
       refX="0.0"
       refY="0.0"
       orient="auto"
       inkscape:stockid="EmptyTriangleOutM">
      <path
         transform="scale(0.4) translate(-4.5,0)"
         style="fill-rule:evenodd;fill:#ffffff;stroke:#000000;stroke-width:1pt;stroke-opacity:1"
         d="M 5.77,0.0 L -2.88,5.0 L -2.88,-5.0 L 5.77,0.0 z "
         id="path5483" />
    </marker>
    <marker
       inkscape:isstock="true"
       style="overflow:visible"
       id="marker5332"
       refX="0.0"
       refY="0.0"
       orient="auto"
       inkscape:stockid="EmptyTriangleOutM">
      <path
         transform="scale(0.4) translate(-4.5,0)"
         style="fill-rule:evenodd;fill:#ffffff;stroke:#000000;stroke-width:1pt;stroke-opacity:1"
         d="M 5.77,0.0 L -2.88,5.0 L -2.88,-5.0 L 5.77,0.0 z "
         id="path5334" />
    </marker>
    <marker
       inkscape:isstock="true"
       style="overflow:visible"
       id="marker5324"
       refX="0.0"
       refY="0.0"
       orient="auto"
       inkscape:stockid="EmptyTriangleOutM"
       inkscape:collect="always">
      <path
         transform="scale(0.4) translate(-4.5,0)"
         style="fill-rule:evenodd;fill:#ffffff;stroke:#000000;stroke-width:1pt;stroke-opacity:1"
         d="M 5.77,0.0 L -2.88,5.0 L -2.88,-5.0 L 5.77,0.0 z "
         id="path5326" />
    </marker>
    <marker
       inkscape:stockid="EmptyTriangleOutM"
       orient="auto"
       refY="0.0"
       refX="0.0"
       id="marker5306"
       style="overflow:visible"
       inkscape:isstock="true"
       inkscape:collect="always">
      <path
         id="path5308"
         d="M 5.77,0.0 L -2.88,5.0 L -2.88,-5.0 L 5.77,0.0 z "
         style="fill-rule:evenodd;fill:#ffffff;stroke:#000000;stroke-width:1pt;stroke-opacity:1"
         transform="scale(0.4) translate(-4.5,0)" />
    </marker>
    <marker
       inkscape:stockid="EmptyTriangleOutM"
       orient="auto"
       refY="0.0"
       refX="0.0"
       id="marker5303"
       style="overflow:visible"
       inkscape:isstock="true"
       inkscape:collect="always">
      <path
         id="path5207"
         d="M 5.77,0.0 L -2.88,5.0 L -2.88,-5.0 L 5.77,0.0 z "
         style="fill-rule:evenodd;fill:#ffffff;stroke:#000000;stroke-width:1pt;stroke-opacity:1"
         transform="scale(0.4) translate(-4.5,0)" />
    </marker>
    <marker
       inkscape:stockid="EmptyTriangleOutL"
       orient="auto"
       refY="0.0"
       refX="0.0"
       id="marker5300"
       style="overflow:visible"
       inkscape:isstock="true">
      <path
         id="path5204"
         d="M 5.77,0.0 L -2.88,5.0 L -2.88,-5.0 L 5.77,0.0 z "
         style="fill-rule:evenodd;fill:#ffffff;stroke:#000000;stroke-width:1pt;stroke-opacity:1"
         transform="scale(0.8) translate(-6,0)" />
    </marker>
    <marker
       inkscape:stockid="EmptyTriangleOutM"
       orient="auto"
       refY="0.0"
       refX="0.0"
       id="EmptyTriangleOutM"
       style="overflow:visible">
      <path
         id="path4130"
         d="M 5.77,0.0 L -2.88,5.0 L -2.88,-5.0 L 5.77,0.0 z "
         style="fill-rule:evenodd;fill:#FFFFFF;stroke:#000000;stroke-width:1.0pt"
         transform="scale(0.4) translate(-4.5,0)" />
    </marker>
    <marker
       inkscape:stockid="EmptyTriangleOutL"
       orient="auto"
       refY="0.0"
       refX="0.0"
       id="EmptyTriangleOutL"
       style="overflow:visible">
      <path
         id="path4127"
         d="M 5.77,0.0 L -2.88,5.0 L -2.88,-5.0 L 5.77,0.0 z "
         style="fill-rule:evenodd;fill:#FFFFFF;stroke:#000000;stroke-width:1.0pt"
         transform="scale(0.8) translate(-6,0)" />
    </marker>
    <inkscape:path-effect
       effect="spiro"
       id="path-effect3193"
       is_visible="true" />
  </defs>
  <sodipodi:namedview
     pagecolor="#ffffff"
     bordercolor="#666666"
     borderopacity="1"
     objecttolerance="10"
     gridtolerance="10"
     guidetolerance="10"
     inkscape:pageopacity="0"
     inkscape:pageshadow="2"
     inkscape:window-width="1920"
     inkscape:window-height="1024"
     id="namedview3977"
     showgrid="false"
     inkscape:zoom="0.73275154"
     inkscape:cx="950.00424"
     inkscape:cy="550.01228"
     inkscape:window-x="-2"
     inkscape:window-y="33"
     inkscape:window-maximized="1"
     inkscape:current-layer="svg3663"
     showguides="true" />
  <text
     font-size="12.7998"
     style="font-style:normal;font-weight:normal;font-size:12.79979992px;font-family:sans-serif;text-anchor:start;fill:#000000"
     x="401.64252"
     y="345.35751"
     id="text3713">
    <tspan
       x="401.64252"
       y="345.35751"
       id="tspan3715" />
  </text>
  <text
     font-size="12.7998"
     style="fill: #000000;text-anchor:start;font-family:sans-serif;font-style:normal;font-weight:normal"
     x="939"
     y="89"
     id="text3871">
    <tspan
       x="939"
       y="89"
       id="tspan3873" />
  </text>
  <g
     id="g3935"
     transform="matrix(0.67646759,0,0,-0.67646759,615.58657,730.89576)">
    <polygon
       style="fill:#ffffff"
       points="210.667,315.562 217.333,304.896 204,302.229 217.333,299.562 210.667,288.896 221.333,295.562 224,282.229 226.667,295.562 237.333,288.896 230.667,299.562 244,302.229 230.667,304.896 237.333,315.562 226.667,308.896 224,322.229 221.333,308.896 "
       id="polygon3937" />
    <polygon
       style="fill:none;stroke:#000000;stroke-width:2"
       points="210.667,315.562 217.333,304.896 204,302.229 217.333,299.562 210.667,288.896 221.333,295.562 224,282.229 226.667,295.562 237.333,288.896 230.667,299.562 244,302.229 230.667,304.896 237.333,315.562 226.667,308.896 224,322.229 221.333,308.896 "
       id="polygon3939" />
    <polygon
       style="fill:none;stroke:#000000;stroke-width:2"
       points="210.667,315.562 217.333,304.896 204,302.229 217.333,299.562 210.667,288.896 221.333,295.562 224,282.229 226.667,295.562 237.333,288.896 230.667,299.562 244,302.229 230.667,304.896 237.333,315.562 226.667,308.896 224,322.229 221.333,308.896 "
       id="polygon3941" />
  </g>
  <text
     xml:space="preserve"
     style="font-style:normal;font-weight:normal;font-size:14.11111024px;line-height:125%;font-family:sans-serif;letter-spacing:0px;word-spacing:0px;fill:#000000;fill-opacity:1;stroke:none;stroke-width:1px;stroke-linecap:butt;stroke-linejoin:miter;stroke-opacity:1;"
     x="408.29987"
     y="366.19748"
     id="text4948"
     sodipodi:linespacing="125%"><tspan
       sodipodi:role="line"
       id="tspan4950"
       x="408.29987"
       y="366.19748" /></text>
  <g
     id="g3799"
     transform="matrix(0.67646759,0,0,0.67646759,361.44574,228.63669)">
    <rect
       style="fill:#00ff00"
       x="751.64502"
       y="286"
       width="38.709702"
       height="40"
       id="rect3801" />
    <rect
       style="fill:none;stroke:#000000;stroke-width:2"
       x="751.64502"
       y="286"
       width="38.709702"
       height="40"
       id="rect3803" />
    <rect
       style="fill:none;stroke:#000000;stroke-width:2"
       x="751.64502"
       y="286"
       width="38.709702"
       height="40"
       id="rect3805" />
  </g>
  <text
     xml:space="preserve"
     style="font-size:30.43705559px;font-style:normal;font-variant:normal;font-weight:normal;font-stretch:normal;fill:#000000;fill-opacity:1;stroke:#000000;stroke-width:0.50559199;stroke-miterlimit:4;stroke-opacity:1;stroke-dasharray:none;stroke-dashoffset:0;font-family:Oxygen Mono;-inkscape-font-specification:Oxygen Mono"
     x="873.34302"
     y="470.93192"
     id="text4980"><tspan
       sodipodi:role="line"
       id="tspan4982"
       x="873.34302"
       y="470.93192"
       style="fill:#000000;fill-opacity:1;stroke-width:0.50559199;stroke-miterlimit:4;stroke-dasharray:none">P</tspan></text>
  <path
     style="fill:none;stroke:#000000;stroke-width:2.25777769;stroke-linecap:butt;stroke-linejoin:miter;stroke-miterlimit:4;stroke-opacity:1;stroke-dasharray:none;marker-end:url(#marker5306)"
     d="M 662.60289,605.50548 758.40383,535.4971"
     id="path5036"
     inkscape:connector-curvature="0" />
  <path
     style="fill:none;stroke:#000000;stroke-width:2.25777769;stroke-linecap:butt;stroke-linejoin:miter;stroke-miterlimit:4;stroke-opacity:1;stroke-dasharray:none;marker-end:url(#marker5303)"
     d="m 868.30659,449.09098 -89.90553,67.79759"
     id="path5038"
     inkscape:connector-curvature="0" />
  <path
     inkscape:connector-curvature="0"
     id="path5322"
     d="m 672.68363,261.77539 95.80095,70.00838"
     style="fill:none;stroke:#000000;stroke-width:2.25777769;stroke-linecap:butt;stroke-linejoin:miter;stroke-miterlimit:4;stroke-opacity:1;stroke-dasharray:none;marker-end:url(#marker5324)" />
  <g
     id="g5508"
     transform="translate(-466.80666,231.80833)">
    <g
       transform="matrix(0.67646759,0,0,0.67646759,393.83205,-2.0149504)"
       id="g4972">
      <rect
         style="fill:#00ff00"
         x="751.64502"
         y="286"
         width="38.709702"
         height="40"
         id="rect4974" />
      <rect
         style="fill:none;stroke:#000000;stroke-width:2"
         x="751.64502"
         y="286"
         width="38.709702"
         height="40"
         id="rect4976" />
      <rect
         style="fill:none;stroke:#000000;stroke-width:2"
         x="751.64502"
         y="286"
         width="38.709702"
         height="40"
         id="rect4978" />
    </g>
    <text
       id="text5387"
       y="243.34082"
       x="903.88391"
       style="font-size:30.43705559px;font-style:normal;font-variant:normal;font-weight:normal;font-stretch:normal;fill:#000000;fill-opacity:1;stroke:#000000;stroke-width:0.50559199;stroke-miterlimit:4;stroke-opacity:1;stroke-dasharray:none;stroke-dashoffset:0;font-family:Oxygen Mono;-inkscape-font-specification:Oxygen Mono"
       xml:space="preserve"><tspan
         style="fill:#000000;fill-opacity:1;stroke-width:0.50559199;stroke-miterlimit:4;stroke-dasharray:none"
         y="243.34082"
         x="903.88391"
         id="tspan5389"
         sodipodi:role="line">R</tspan></text>
  </g>
  <g
     id="g6362"
     transform="translate(224.92996,-85.291611)">
    <g
       transform="matrix(0.67646759,0,0,0.67646759,126.50178,498.80224)"
       id="g3727">
      <rect
         id="rect3729"
         height="40"
         width="38.709702"
         y="286"
         x="410.64499"
         style="fill:#00ff00" />
      <rect
         id="rect3731"
         height="40"
         width="38.709702"
         y="286"
         x="410.64499"
         style="fill:none;stroke:#000000;stroke-width:2" />
      <rect
         id="rect3733"
         height="40"
         width="38.709702"
         y="286"
         x="410.64499"
         style="fill:none;stroke:#000000;stroke-width:2" />
    </g>
    <text
       id="text5403"
       y="741.34119"
       x="409.47015"
       style="font-size:30.43705559px;font-style:normal;font-variant:normal;font-weight:normal;font-stretch:normal;fill:#000000;fill-opacity:1;stroke:#000000;stroke-width:0.50559199;stroke-miterlimit:4;stroke-opacity:1;stroke-dasharray:none;stroke-dashoffset:0;font-family:Oxygen Mono;-inkscape-font-specification:Oxygen Mono"
       xml:space="preserve"><tspan
         style="fill:#000000;fill-opacity:1;stroke-width:0.50559199;stroke-miterlimit:4;stroke-dasharray:none"
         y="741.34119"
         x="409.47015"
         id="tspan5405"
         sodipodi:role="line">I<tspan
   id="tspan5407"
   style="font-size:14.11111069px;baseline-shift:sub;fill:#000000;fill-opacity:1;stroke-width:0.50559199;stroke-miterlimit:4;stroke-dasharray:none">P</tspan></tspan></text>
  </g>
  <g
     id="g5447"
     transform="translate(237.25488,-89.117526)">
    <g
       transform="matrix(0.67646759,0,0,0.67646759,127.4056,131.21497)"
       id="g4964">
      <rect
         style="fill:#00ff00"
         x="410.64499"
         y="286"
         width="38.709702"
         height="40"
         id="rect4966" />
      <rect
         style="fill:none;stroke:#000000;stroke-width:2"
         x="410.64499"
         y="286"
         width="38.709702"
         height="40"
         id="rect4968" />
      <rect
         style="fill:none;stroke:#000000;stroke-width:2"
         x="410.64499"
         y="286"
         width="38.709702"
         height="40"
         id="rect4970" />
    </g>
    <text
       id="text5409"
       y="374.25659"
       x="408.57651"
       style="font-size:30.43705559px;font-style:normal;font-variant:normal;font-weight:normal;font-stretch:normal;fill:#000000;fill-opacity:1;stroke:#000000;stroke-width:0.50559199;stroke-miterlimit:4;stroke-opacity:1;stroke-dasharray:none;stroke-dashoffset:0;font-family:Oxygen Mono;-inkscape-font-specification:Oxygen Mono"
       xml:space="preserve"><tspan
         style="fill:#000000;fill-opacity:1;stroke-width:0.50559199;stroke-miterlimit:4;stroke-dasharray:none"
         y="374.25659"
         x="408.57651"
         id="tspan5411"
         sodipodi:role="line">I<tspan
   id="tspan5413"
   style="font-size:14.11111069px;baseline-shift:sub;fill:#000000;fill-opacity:1;stroke-width:0.50559199;stroke-miterlimit:4;stroke-dasharray:none">R</tspan></tspan></text>
  </g>
  <g
     id="g5516"
     transform="translate(-130.18206,-47.813495)">
    <text
       id="text5415"
       y="499.7959"
       x="839.1369"
       style="font-size:13.36399174px;font-style:normal;font-variant:normal;font-weight:normal;font-stretch:normal;fill:#000000;fill-opacity:1;stroke:#000000;stroke-width:0.38182837;stroke-miterlimit:4;stroke-opacity:1;stroke-dasharray:none;stroke-dashoffset:0;font-family:Oxygen Mono;-inkscape-font-specification:Oxygen Mono"
       xml:space="preserve"><tspan
         style="text-align:center;text-anchor:middle;stroke-width:0.38182837"
         y="499.7959"
         x="839.1369"
         id="tspan5417"
         sodipodi:role="line">Func.Polymer</tspan><tspan
         id="tspan5419"
         style="text-align:center;text-anchor:middle;stroke-width:0.38182837"
         y="516.50092"
         x="839.1369"
         sodipodi:role="line">Polymerization</tspan></text>
  </g>
  <text
     xml:space="preserve"
     style="font-size:13.36399174px;font-style:normal;font-variant:normal;font-weight:normal;font-stretch:normal;text-align:center;text-anchor:middle;fill:#000000;fill-opacity:1;stroke:#000000;stroke-width:0.38182837;stroke-miterlimit:4;stroke-opacity:1;stroke-dasharray:none;stroke-dashoffset:0;font-family:Oxygen Mono;-inkscape-font-specification:Oxygen Mono"
     x="832.93396"
     y="524.99457"
     id="text5421"><tspan
       sodipodi:role="line"
       id="tspan5423"
       x="832.93396"
       y="524.99457"
       style="stroke-width:0.38182837">Info.Polymer</tspan><tspan
       sodipodi:role="line"
       x="832.93396"
       y="541.69958"
       style="stroke-width:0.38182837"
       id="tspan5425">Polymerization</tspan></text>
  <g
     id="g5470"
     transform="translate(239.56581,-7.4648697)">
    <g
       id="g5456"
       transform="matrix(0.67646759,0,0,0.67646759,387.57538,144.92585)">
      <polygon
         style="fill:#ffffff"
         points="226.667,295.562 237.333,288.896 230.667,299.562 244,302.229 230.667,304.896 237.333,315.562 226.667,308.896 224,322.229 221.333,308.896 210.667,315.562 217.333,304.896 204,302.229 217.333,299.562 210.667,288.896 221.333,295.562 224,282.229 "
         id="polygon5458" />
      <polygon
         style="fill:none;stroke:#000000;stroke-width:2"
         points="226.667,295.562 237.333,288.896 230.667,299.562 244,302.229 230.667,304.896 237.333,315.562 226.667,308.896 224,322.229 221.333,308.896 210.667,315.562 217.333,304.896 204,302.229 217.333,299.562 210.667,288.896 221.333,295.562 224,282.229 "
         id="polygon5460" />
      <polygon
         style="fill:none;stroke:#000000;stroke-width:2"
         points="226.667,295.562 237.333,288.896 230.667,299.562 244,302.229 230.667,304.896 237.333,315.562 226.667,308.896 224,322.229 221.333,308.896 210.667,315.562 217.333,304.896 204,302.229 217.333,299.562 210.667,288.896 221.333,295.562 224,282.229 "
         id="polygon5462" />
    </g>
    <text
       xml:space="preserve"
       style="font-size:13.36399174px;font-style:normal;font-variant:normal;font-weight:normal;font-stretch:normal;text-align:center;text-anchor:middle;fill:#000000;fill-opacity:1;stroke:#000000;stroke-width:0.38182837;stroke-miterlimit:4;stroke-opacity:1;stroke-dasharray:none;stroke-dashoffset:0;font-family:Oxygen Mono;-inkscape-font-specification:Oxygen Mono"
       x="602.61182"
       y="347.69446"
       id="text5464"><tspan
         sodipodi:role="line"
         id="tspan5466"
         x="602.61182"
         y="347.69446"
         style="stroke-width:0.38182837">Info.Polymer</tspan><tspan
         sodipodi:role="line"
         x="602.61182"
         y="364.39944"
         style="stroke-width:0.38182837"
         id="tspan5468">Polymerization</tspan></text>
  </g>
  <path
     inkscape:connector-curvature="0"
     id="path5479"
     d="M 869.0769,422.19153 779.17137,354.39394"
     style="fill:none;stroke:#000000;stroke-width:2.25777769;stroke-linecap:butt;stroke-linejoin:miter;stroke-miterlimit:4;stroke-opacity:1;stroke-dasharray:none;marker-end:url(#marker5481)" />
  <path
     style="fill:none;stroke:#a70000;stroke-width:2.25777769;stroke-linecap:butt;stroke-linejoin:miter;stroke-miterlimit:4;stroke-opacity:1;stroke-dasharray:none;marker-end:url(#TriangleOutM)"
     d="m 779.22041,327.01462 c 0,0 -6.40812,-58.70909 -25.86615,-76.48438 -19.45803,-17.7753 -76.16141,-15.45139 -76.16141,-15.45139"
     id="path5487"
     inkscape:connector-curvature="0"
     sodipodi:nodetypes="czc" />
  <path
     sodipodi:nodetypes="czc"
     inkscape:connector-curvature="0"
     id="path5491"
     d="m 765.15572,539.84125 c 0,0 -6.40812,58.70909 -25.86615,76.48438 -19.45803,17.7753 -76.16141,15.45139 -76.16141,15.45139"
     style="fill:none;stroke:#a30000;stroke-width:2.25777769;stroke-linecap:butt;stroke-linejoin:miter;stroke-miterlimit:4;stroke-opacity:1;stroke-dasharray:none;marker-end:url(#marker5493)" />
  <g
     id="g5521"
     transform="translate(-237.25487,-157.74075)">
    <text
       xml:space="preserve"
       style="font-size:13.36399174px;font-style:normal;font-variant:normal;font-weight:normal;font-stretch:normal;fill:#000000;fill-opacity:1;stroke:#000000;stroke-width:0.38182837;stroke-miterlimit:4;stroke-opacity:1;stroke-dasharray:none;stroke-dashoffset:0;font-family:Oxygen Mono;-inkscape-font-specification:Oxygen Mono"
       x="839.1369"
       y="499.7959"
       id="text5523"><tspan
         sodipodi:role="line"
         id="tspan5525"
         x="839.1369"
         y="499.7959"
         style="text-align:center;text-anchor:middle;stroke-width:0.38182837">Func.Polymer</tspan><tspan
         sodipodi:role="line"
         x="839.1369"
         y="516.50092"
         style="text-align:center;text-anchor:middle;stroke-width:0.38182837"
         id="tspan5527">Polymerization</tspan></text>
  </g>
  <g
     id="g5537"
     transform="matrix(0.67646759,0,0,-0.67646759,433.90483,543.91892)">
    <polygon
       style="fill:#ffffff"
       points="297.667,139.667 308.333,146.333 311,133 313.667,146.333 324.333,139.667 317.667,150.333 331,153 317.667,155.667 324.333,166.333 313.667,159.667 311,173 308.333,159.667 297.667,166.333 304.333,155.667 291,153 304.333,150.333 "
       id="polygon5539" />
    <polygon
       style="fill:none;stroke:#000000;stroke-width:2"
       points="297.667,139.667 308.333,146.333 311,133 313.667,146.333 324.333,139.667 317.667,150.333 331,153 317.667,155.667 324.333,166.333 313.667,159.667 311,173 308.333,159.667 297.667,166.333 304.333,155.667 291,153 304.333,150.333 "
       id="polygon5541" />
    <polygon
       style="fill:none;stroke:#000000;stroke-width:2"
       points="297.667,139.667 308.333,146.333 311,133 313.667,146.333 324.333,139.667 317.667,150.333 331,153 317.667,155.667 324.333,166.333 313.667,159.667 311,173 308.333,159.667 297.667,166.333 304.333,155.667 291,153 304.333,150.333 "
       id="polygon5543" />
  </g>
  <path
     style="fill:none;stroke:#a30000;stroke-width:2.25777769;stroke-linecap:butt;stroke-linejoin:miter;stroke-miterlimit:4;stroke-opacity:1;stroke-dasharray:none;marker-end:url(#marker5547)"
     d="m 526.24496,340.06997 c 0,0 -57.83876,4.74177 -75.35056,19.13997 -17.51179,14.3982 -15.22233,56.35653 -15.22233,56.35653"
     id="path5545"
     inkscape:connector-curvature="0"
     sodipodi:nodetypes="czc" />
  <path
     inkscape:connector-curvature="0"
     id="path5551"
     d="m 435.4581,423.28093 95.80094,-70.00838"
     style="fill:#ffffff;fill-rule:evenodd;stroke:#000000;stroke-width:1.90914166;stroke-linecap:butt;stroke-linejoin:miter;stroke-miterlimit:4;stroke-opacity:1;stroke-dasharray:none;marker-end:url(#marker5553)" />
  <g
     transform="matrix(0.67646759,0,0,-0.67646759,386.80507,548.33274)"
     id="g6371">
    <polygon
       id="polygon6373"
       points="221.333,295.562 224,282.229 226.667,295.562 237.333,288.896 230.667,299.562 244,302.229 230.667,304.896 237.333,315.562 226.667,308.896 224,322.229 221.333,308.896 210.667,315.562 217.333,304.896 204,302.229 217.333,299.562 210.667,288.896 "
       style="fill:#ffffff" />
    <polygon
       id="polygon6375"
       points="221.333,295.562 224,282.229 226.667,295.562 237.333,288.896 230.667,299.562 244,302.229 230.667,304.896 237.333,315.562 226.667,308.896 224,322.229 221.333,308.896 210.667,315.562 217.333,304.896 204,302.229 217.333,299.562 210.667,288.896 "
       style="fill:none;stroke:#000000;stroke-width:2" />
    <polygon
       id="polygon6377"
       points="221.333,295.562 224,282.229 226.667,295.562 237.333,288.896 230.667,299.562 244,302.229 230.667,304.896 237.333,315.562 226.667,308.896 224,322.229 221.333,308.896 210.667,315.562 217.333,304.896 204,302.229 217.333,299.562 210.667,288.896 "
       style="fill:none;stroke:#000000;stroke-width:2" />
  </g>
  <path
     style="fill:none;stroke:#000000;stroke-width:2.33006573;stroke-linecap:butt;stroke-linejoin:miter;stroke-miterlimit:4;stroke-opacity:1;stroke-dasharray:none;marker-end:url(#marker6383)"
     d="m 466.78094,437.51162 161.04424,2.26044"
     id="path6379"
     inkscape:connector-curvature="0" />
  <path
     style="fill:none;stroke:#970000;stroke-width:2.25777769;stroke-linecap:butt;stroke-linejoin:miter;stroke-miterlimit:4;stroke-opacity:1;stroke-dasharray:none;marker-end:url(#marker6387)"
     d="m 659.92388,438.01364 201.12955,0.56249"
     id="path6381"
     inkscape:connector-curvature="0" />
  <path
     inkscape:connector-curvature="0"
     id="path6391"
     d="M 645.34891,602.94958 645.07904,457.87952"
     style="fill:#ffffff;fill-rule:evenodd;stroke:#000000;stroke-width:2.04573059;stroke-linecap:butt;stroke-linejoin:miter;stroke-miterlimit:4;stroke-opacity:1;stroke-dasharray:none;marker-end:url(#marker6393)" />
  <path
     style="fill:#ffffff;fill-rule:evenodd;stroke:#000000;stroke-width:1.90914166;stroke-linecap:butt;stroke-linejoin:miter;stroke-miterlimit:4;stroke-opacity:1;stroke-dasharray:none;marker-end:url(#marker6399)"
     d="M 641.63264,262.78228 545.8317,332.79066"
     id="path6397"
     inkscape:connector-curvature="0" />
</svg>
